<?xml version="1.0" encoding="iso-8859-1"?>
<!-- Generator: Adobe Illustrator 19.0.0, SVG Export Plug-In . SVG Version: 6.00 Build 0)  -->
<svg version="1.1" id="Capa_1" xmlns="http://www.w3.org/2000/svg" xmlns:xlink="http://www.w3.org/1999/xlink" x="0px" y="0px"
	 viewBox="0 0 512 512" style="enable-background:new 0 0 512 512;" xml:space="preserve">
<path style="fill:#00B8AB;" d="M437.981,40.759c2.502,2.219,1.512,6.353-1.727,7.183c-8.751,2.243-23.807,4.487-33.807-2.855
	c-4.529-3.32-8.023-8.594-9.424-16.728l1.509-1.9c0,0,5.409-2.489,14.493-1.019C416.507,26.657,426.483,30.559,437.981,40.759z"/>
<path style="fill:#31E8BB;" d="M435.719,4.52c3.339,0.183,5.135,4.035,3.114,6.7c-5.46,7.198-15.856,18.316-28.253,18.784
	c-5.612,0.216-11.627-1.743-17.782-7.242v-2.426c0,0,2.689-5.312,10.718-9.809C410.132,6.827,420.372,3.68,435.719,4.52z"/>
<path style="fill:#00B8AB;" d="M410.579,30.004c-5.612,0.216-11.627-1.743-17.782-7.242v-2.426c0,0,2.689-5.312,10.718-9.809
	c1.827,2.042,3.232,4.506,4.075,7.279l2.173,7.139C410.261,26.603,410.533,28.299,410.579,30.004z"/>
<path style="fill:#FFC89D;" d="M113.248,58.372c-1.087,1.134-2.323,2.211-3.654,3.26c-1.031,0.815-2.136,1.602-3.298,2.361
	c-3.195,2.127-7.073,2.267-10.249,0.787c-2.108-0.974-3.916-2.67-5.012-4.956L73.366,22.912c-3.635-7.607,2.717-15.927,10.549-14.98
	c0.656,0.084,1.349,0.225,2.042,0.45c1.808,0.6,3.607,1.321,5.387,2.183c10.371,4.975,19.927,14.034,24.696,23.131
	c0.206,0.394,0.403,0.787,0.59,1.18C121.333,44.713,119.197,52.236,113.248,58.372z"/>
<path style="fill:#F79F7C;" d="M116.63,34.876c4.703,9.837,2.567,17.36-3.382,23.496c-1.087,1.134-2.323,2.211-3.654,3.26
	c-1.031,0.815-2.136,1.602-3.298,2.361c-3.195,2.127-7.073,2.267-10.249,0.787c-0.665-5.696,1.012-11.617,5.003-16.151l9.069-10.287
	c1.696-1.921,3.701-3.485,5.921-4.647C116.246,34.089,116.443,34.482,116.63,34.876z"/>
<path style="fill:#FFC89D;" d="M410.664,511.906L369.742,512c-6.38,0.019-11.252-5.621-10.38-11.945
	c0.178-1.377,0.412-2.707,0.703-3.991c0.328-1.499,0.721-2.923,1.199-4.272c0.047-0.141,0.094-0.29,0.15-0.431
	c2.951-8.029,8.797-13.219,19.702-13.247c8.9-0.028,19.562,3.382,28.312,8.975c1.593,1.012,3.12,2.108,4.562,3.26
	c1.546,1.237,2.979,2.539,4.3,3.916c0.515,0.515,0.937,1.077,1.302,1.639C423.836,502.547,419.095,511.878,410.664,511.906z"/>
<path style="fill:#F79F7C;" d="M409.427,487.089c-3.926,4.291-9.434,6.727-15.28,6.727h-23.918c-3.195,0-6.239-0.721-8.966-2.024
	c0.047-0.141,0.094-0.29,0.15-0.431c2.951-8.029,8.797-13.219,19.702-13.247C390.015,478.086,400.677,481.496,409.427,487.089z"/>
<path style="fill:#798D9D;" d="M394.147,480.699h-23.914c-3.526,0-6.588-2.417-7.399-5.849
	c-5.876-24.855-30.537-123.547-66.776-191.529c-6.155-11.552-12.648-22.213-19.44-31.479c-0.684-0.937-1.368-1.855-2.052-2.754
	c-3.719-4.872-7.523-9.322-11.411-13.257c-4.094-4.15-8.226-8.301-12.376-12.451c-49.522-49.514-121.902-134.702-140-156.153
	c-2.43-2.88-2.379-7.098,0.113-9.925c2.834-3.214,6.259-7.103,9.07-10.294c2.81-3.19,7.685-3.454,10.827-0.59l126.231,115.09
	l24.134,22.007l9.687,8.825l0.019,0.019l71.782,65.449l2.314,12.685l1.405,7.71l35.269,193.525
	C402.479,476.401,398.893,480.699,394.147,480.699z"/>
<g>
	<path style="fill:#446682;" d="M366.359,278.206c-9.575-2.633-49.307-15.327-78.49-51.49l-4.038-5.012l7.008-29.361l71.801,65.468
		L366.359,278.206z"/>
	<path style="fill:#446682;" d="M362.64,257.811l-71.782-65.449l-14.24,59.481c6.792,9.266,13.285,19.927,19.44,31.479
		l12.273-51.284c12.657,15.28,31.863,32.715,56.624,38.458L362.64,257.811z M257.018,161.511c-2.089,20.62-4.281,42.374-6.239,61.87
		c4.15,4.15,8.282,8.301,12.376,12.451c3.888,3.935,7.692,8.385,11.411,13.257c1.883-18.868,4.235-42.271,6.586-65.571
		L257.018,161.511z"/>
</g>
<path style="fill:#798D9D;" d="M418.421,180.127c-7.017,45.026-47.049,13.088-47.789,12.507c-0.009-0.009-0.009-0.019-0.009-0.019
	l-2.361,65.196c-40.988-9.284-65.796-57.608-65.796-57.608l-8.132,33.98l-9.8,40.95l-3.757,15.692l-23.29-2.717
	c0,0,0.74-7.429,1.939-19.505c2.942-29.427,8.647-86.407,13.154-130.43c3.541-34.626,17.379-47.171,28.912-51.49
	c9.153-3.41,16.863-1.668,16.863-1.668s34.692,9.069,61.102-0.749c5.677-2.108,11.036-0.984,15.889,2.539
	C413.071,99.66,423.976,144.441,418.421,180.127z"/>
<g>
	<path style="fill:#446682;" d="M284.534,275.134l-3.757,15.692l-23.29-2.717c0,0,0.74-7.429,1.939-19.505
		c1.19-0.112,2.389-0.169,3.607-0.169C271.015,268.435,278.416,270.908,284.534,275.134z"/>
	<path style="fill:#446682;" d="M395.346,86.806c-1.368,1.64-2.829,3.213-4.375,4.722c-11.439,11.139-26.541,17.266-42.515,17.266
		c-15.898,0-30.945-6.08-42.365-17.135c-1.64-1.583-3.176-3.242-4.6-4.975c9.153-3.41,16.863-1.668,16.863-1.668
		s34.692,9.069,61.102-0.749C385.134,82.159,390.493,83.283,395.346,86.806z"/>
	<polygon style="fill:#446682;" points="326.299,156.489 316.837,196.418 304.077,193.392 307.965,176.988 313.539,153.463 	"/>
	<path style="fill:#446682;" d="M337.749,182.668c-20.918,0-37.936-17.019-37.936-37.937c0-20.919,17.018-37.937,37.936-37.937
		s37.937,17.019,37.937,37.937C375.686,165.65,358.667,182.668,337.749,182.668z"/>
	<path style="fill:#446682;" d="M370.622,192.615l-0.6,16.442l-36.866-33.764l5.443-5.762l3.56-3.776l9.003-9.537l5.209,4.919
		c-2.998,3.401-6.905,5.968-11.345,7.326L370.622,192.615z"/>
	<path style="fill:#446682;" d="M369.292,229.312l-0.506,13.997l-0.525,14.503c-40.988-9.284-65.796-57.608-65.796-57.608
		l-4.375,18.287l-0.009-0.009l5.996-25.089l3.888-16.404l6.483,8.376C314.692,185.682,338.169,215.512,369.292,229.312z"/>
</g>
<path style="fill:#FFC89D;" d="M396.304,47.845c0,0.468-0.009,0.937-0.028,1.405c-0.731,25.773-21.857,46.431-47.817,46.431
	c-25.838,0-46.899-20.489-47.799-46.112c-0.028-0.571-0.038-1.143-0.038-1.724c0-19.534,11.701-36.331,28.471-43.761
	C335.015,1.462,341.563,0,348.458,0c6.895,0,13.444,1.462,19.365,4.085C384.603,11.514,396.304,28.312,396.304,47.845z"/>
<path style="fill:#F79F7C;" d="M396.304,47.845c0,0.468-0.009,0.937-0.028,1.405c-1.621,0.44-3.317,0.675-5.022,0.675h-86.941
	c-1.237,0-2.464-0.122-3.654-0.356c-0.028-0.571-0.038-1.143-0.038-1.724c0-19.534,11.701-36.331,28.471-43.761h38.73
	C384.603,11.514,396.304,28.312,396.304,47.845z"/>
<path style="fill:#31E8BB;" d="M391.252,36.809h-86.937c-4.183,0-7.178-4.041-5.961-8.043l2.173-7.144
	c0.798-2.624,3.218-4.417,5.961-4.417h82.591c2.743,0,5.163,1.793,5.961,4.417l2.173,7.144
	C398.43,32.768,395.435,36.809,391.252,36.809z"/>
<circle style="fill:#FFC89D;" cx="263.029" cy="306.38" r="24.821"/>
<g>
	<path style="fill:#446682;" d="M397.485,180.103c-0.891,0-1.798-0.155-2.682-0.483c-22.212-8.227-38.712-24.159-39.404-24.833
		c-3.055-2.979-3.118-7.87-0.139-10.926c2.976-3.051,7.864-3.118,10.919-0.145l0,0c0.148,0.143,14.938,14.357,33.99,21.414
		c4.002,1.482,6.044,5.928,4.562,9.929C403.578,178.175,400.625,180.103,397.485,180.103z"/>
	<path style="fill:#446682;" d="M386.02,174.092c-1.193,0-2.403-0.277-3.537-0.862c-3.78-1.951-5.271-6.588-3.341-10.374
		c0.131-0.265,5.305-10.936,2.511-23.354c-0.937-4.163,1.679-8.297,5.842-9.233c4.171-0.937,8.297,1.679,9.234,5.842
		c4.083,18.148-3.512,33.166-3.837,33.796C391.52,172.566,388.819,174.092,386.02,174.092z"/>
</g>
<circle style="fill:#FFC89D;" cx="337.749" cy="144.73" r="24.821"/>
<path style="fill:#31E8BB;" d="M304.073,193.392c0,0,28.831,37.251,67.407,50.914c2.193,0.777,3.719,2.81,3.788,5.135
	c0.08,2.692-0.215,6.602-1.762,11.329c-0.983,3.004-4.171,4.691-7.184,3.735c-12.283-3.897-44.302-16.352-68.242-46.023
	L304.073,193.392z"/>
<g>
</g>
<g>
</g>
<g>
</g>
<g>
</g>
<g>
</g>
<g>
</g>
<g>
</g>
<g>
</g>
<g>
</g>
<g>
</g>
<g>
</g>
<g>
</g>
<g>
</g>
<g>
</g>
<g>
</g>
</svg>
