<?xml version="1.0"?>
<svg xmlns="http://www.w3.org/2000/svg" xmlns:xlink="http://www.w3.org/1999/xlink" xmlns:svgjs="http://svgjs.com/svgjs" version="1.1" width="512" height="512" x="0" y="0" viewBox="0 0 456 456" style="enable-background:new 0 0 512 512" xml:space="preserve" class=""><g><path xmlns="http://www.w3.org/2000/svg" d="m96 336h16v16h-16zm0 0" fill="#76b82a" data-original="#000000" style="" class=""/><path xmlns="http://www.w3.org/2000/svg" d="m160 336h16v80h-16zm0 0" fill="#76b82a" data-original="#000000" style="" class=""/><path xmlns="http://www.w3.org/2000/svg" d="m96 272h16v16h-16zm0 0" fill="#76b82a" data-original="#000000" style="" class=""/><path xmlns="http://www.w3.org/2000/svg" d="m32 192h144v32h-144zm0 0" fill="#76b82a" data-original="#000000" style="" class=""/><path xmlns="http://www.w3.org/2000/svg" d="m160 272h16v16h-16zm0 0" fill="#76b82a" data-original="#000000" style="" class=""/><path xmlns="http://www.w3.org/2000/svg" d="m96 400h16v16h-16zm0 0" fill="#76b82a" data-original="#000000" style="" class=""/><path xmlns="http://www.w3.org/2000/svg" d="m32 400h16v16h-16zm0 0" fill="#76b82a" data-original="#000000" style="" class=""/><path xmlns="http://www.w3.org/2000/svg" d="m32 336h16v16h-16zm0 0" fill="#76b82a" data-original="#000000" style="" class=""/><path xmlns="http://www.w3.org/2000/svg" d="m32 272h16v16h-16zm0 0" fill="#76b82a" data-original="#000000" style="" class=""/><path xmlns="http://www.w3.org/2000/svg" d="m192 160h-176c-8.835938 0-16 7.164062-16 16v256c0 8.835938 7.164062 16 16 16h176c8.835938 0 16-7.164062 16-16v-256c0-8.835938-7.164062-16-16-16zm-128 264c0 4.417969-3.582031 8-8 8h-32c-4.417969 0-8-3.582031-8-8v-32c0-4.417969 3.582031-8 8-8h32c4.417969 0 8 3.582031 8 8zm0-64c0 4.417969-3.582031 8-8 8h-32c-4.417969 0-8-3.582031-8-8v-32c0-4.417969 3.582031-8 8-8h32c4.417969 0 8 3.582031 8 8zm0-64c0 4.417969-3.582031 8-8 8h-32c-4.417969 0-8-3.582031-8-8v-32c0-4.417969 3.582031-8 8-8h32c4.417969 0 8 3.582031 8 8zm64 128c0 4.417969-3.582031 8-8 8h-32c-4.417969 0-8-3.582031-8-8v-32c0-4.417969 3.582031-8 8-8h32c4.417969 0 8 3.582031 8 8zm0-64c0 4.417969-3.582031 8-8 8h-32c-4.417969 0-8-3.582031-8-8v-32c0-4.417969 3.582031-8 8-8h32c4.417969 0 8 3.582031 8 8zm0-64c0 4.417969-3.582031 8-8 8h-32c-4.417969 0-8-3.582031-8-8v-32c0-4.417969 3.582031-8 8-8h32c4.417969 0 8 3.582031 8 8zm64 128c0 4.417969-3.582031 8-8 8h-32c-4.417969 0-8-3.582031-8-8v-96c0-4.417969 3.582031-8 8-8h32c4.417969 0 8 3.582031 8 8zm0-128c0 4.417969-3.582031 8-8 8h-32c-4.417969 0-8-3.582031-8-8v-32c0-4.417969 3.582031-8 8-8h32c4.417969 0 8 3.582031 8 8zm0-64c0 4.417969-3.582031 8-8 8h-160c-4.417969 0-8-3.582031-8-8v-48c0-4.417969 3.582031-8 8-8h160c4.417969 0 8 3.582031 8 8zm0 0" fill="#76b82a" data-original="#000000" style="" class=""/><path xmlns="http://www.w3.org/2000/svg" d="m224 288h184c8.835938 0 16-7.164062 16-16v-16h-200zm0 0" fill="#76b82a" data-original="#000000" style="" class=""/><path xmlns="http://www.w3.org/2000/svg" d="m96 32h-8c-8.835938 0-16 7.164062-16 16v96h24zm0 0" fill="#76b82a" data-original="#000000" style="" class=""/><path xmlns="http://www.w3.org/2000/svg" d="m424 48c0-8.835938-7.164062-16-16-16h-8v208h24zm0 0" fill="#76b82a" data-original="#000000" style="" class=""/><path xmlns="http://www.w3.org/2000/svg" d="m282.046875 304h-58.046875v64h77.246094zm0 0" fill="#76b82a" data-original="#000000" style="" class=""/><path xmlns="http://www.w3.org/2000/svg" d="m320 128c.046875-16.339844-5.507812-32.203125-15.734375-44.945312l-44.953125 44.945312 44.953125 44.945312c10.226563-12.742187 15.78125-28.605468 15.734375-44.945312zm0 0" fill="#76b82a" data-original="#000000" style="" class=""/><path xmlns="http://www.w3.org/2000/svg" d="m224 240h160v-224c0-8.835938-7.164062-16-16-16h-240c-8.835938 0-16 7.164062-16 16v128h80c17.671875 0 32 14.328125 32 32zm144-32h-32v-16h32zm0-32h-24v-16h24zm0-88h-24v-16h24zm-32-48h32v16h-32zm-144-24h16v16h-16zm-64 0h16v16h-16zm24 80h-24v-16h24zm8-32h-32v-16h32zm0-48h16v16h-16zm56 120v-16h28.6875l48.257812-48.265625c-20.605468-16.464844-48.566406-20.347656-72.878906-10.117187-24.3125 10.230468-41.082031 32.9375-43.714844 59.183593l-15.917968-1.601562c3.871094-38.542969 32.496094-70.023438 70.5-77.53125 38.003906-7.511719 76.449218 10.714843 94.691406 44.890625 18.242188 34.175781 11.988281 76.261718-15.402344 103.65625l-.085937.066406c-16.496094 16.453125-38.835938 25.703125-62.136719 25.71875-2.960938 0-5.894531-.152344-8.800781-.441406l1.601562-15.917969c14.699219 1.488281 29.503907-1.585937 42.398438-8.800781 3.433593-1.898438 6.699219-4.085938 9.761719-6.542969l-48.273438-48.296875zm0 0" fill="#76b82a" data-original="#000000" style="" class=""/><path xmlns="http://www.w3.org/2000/svg" d="m248 440 24 16h144v-32h-144zm0 0" fill="#76b82a" data-original="#000000" style="" class=""/><path xmlns="http://www.w3.org/2000/svg" d="m432 408v-16c0-4.417969-3.582031-8-8-8h-72v16h64v8zm0 0" fill="#76b82a" data-original="#000000" style="" class=""/><path xmlns="http://www.w3.org/2000/svg" d="m432 424h24v32h-24zm0 0" fill="#76b82a" data-original="#000000" style="" class=""/></g></svg>
