<?xml version="1.0" encoding="iso-8859-1"?>
<!-- Generator: Adobe Illustrator 19.0.0, SVG Export Plug-In . SVG Version: 6.00 Build 0)  -->
<svg version="1.1" id="Capa_1" xmlns="http://www.w3.org/2000/svg" xmlns:xlink="http://www.w3.org/1999/xlink" x="0px" y="0px"
	 viewBox="0 0 512 512" style="enable-background:new 0 0 512 512;" xml:space="preserve">
<g>
	<g>
		<path d="M465.427,215.75c-2.458-2.021-5.667-2.802-8.854-2.208c-0.172,0.034-3.357,0.658-8.573,1.609V42.667
			C448,19.135,428.865,0,405.333,0H106.667C83.135,0,64,19.135,64,42.667V215.15c-5.215-0.952-8.401-1.574-8.573-1.608
			c-3.135-0.604-6.385,0.188-8.854,2.208c-2.469,2.031-3.906,5.052-3.906,8.25v64c0,5.083,3.594,9.458,8.573,10.458
			c0.225,0.046,5.26,1.033,13.629,2.52l17.309,169.981C84.562,494.354,104.104,512,127.615,512c9.427,0,18.49-2.865,26.219-8.281
			L256,432.073l102.167,71.656c7.729,5.406,16.792,8.271,26.219,8.271c23.51,0,43.052-17.646,45.438-41.042l17.309-169.981
			c8.368-1.487,13.404-2.474,13.629-2.52c4.979-1,8.573-5.375,8.573-10.458v-64C469.333,220.802,467.896,217.781,465.427,215.75z
			 M85.333,42.667c0-11.76,9.573-21.333,21.333-21.333h298.667c11.76,0,21.333,9.573,21.333,21.333v108.849
			C403.47,156.637,332.93,170.667,256,170.667c-76.839,0-147.454-14.034-170.667-19.154V42.667z M85.333,173.361
			C113.017,179.319,180.73,192,256,192s142.983-12.681,170.667-18.639v45.466c-38.234,6.258-107.107,15.84-170.667,15.84
			c-63.525,0-132.421-9.585-170.667-15.841V173.361z M141.583,486.25c-4.115,2.896-8.948,4.417-13.969,4.417
			c-12.531,0-22.938-9.406-24.208-21.875L87.646,314l149.781,105.042L141.583,486.25z M118.113,309.32
			C157.167,314.676,208.053,320,256,320s98.833-5.324,137.887-10.68L256,406.021L118.113,309.32z M408.594,468.792
			c-1.271,12.469-11.677,21.875-24.208,21.875c-5.021,0-9.854-1.521-13.969-4.406l-95.844-67.219L424.354,314L408.594,468.792z
			 M448,279.156c-27.094,4.938-113.656,19.51-192,19.51c-78.292,0-164.896-14.573-192-19.51v-42.323
			C95.406,242.427,179.458,256,256,256s160.594-13.573,192-19.167V279.156z"/>
	</g>
</g>
<g>
</g>
<g>
</g>
<g>
</g>
<g>
</g>
<g>
</g>
<g>
</g>
<g>
</g>
<g>
</g>
<g>
</g>
<g>
</g>
<g>
</g>
<g>
</g>
<g>
</g>
<g>
</g>
<g>
</g>
</svg>
