<?xml version="1.0" encoding="iso-8859-1"?>
<!-- Generator: Adobe Illustrator 19.0.0, SVG Export Plug-In . SVG Version: 6.00 Build 0)  -->
<svg version="1.1" id="Capa_1" xmlns="http://www.w3.org/2000/svg" xmlns:xlink="http://www.w3.org/1999/xlink" x="0px" y="0px"
	 viewBox="0 0 512 512" style="enable-background:new 0 0 512 512;" xml:space="preserve">
<g>
	<path style="fill:#34A1D7;" d="M138.629,261.852c-11.324,0-21.139-6.44-25.999-15.855c-4.86,9.414-14.674,15.855-25.999,15.855
		c-16.153,0-29.248-13.095-29.248-29.249c0-4.465,1.004-8.693,2.792-12.478c-0.201-0.176-0.408-0.344-0.607-0.522h-27.92
		c-9.845,0-17.854,8.01-17.854,17.855v145.487c0,2.762,2.239,5,5,5h58.61l-38.207-24.111c-2.326-1.467-4.229-4.918-4.229-7.668
		v-17.987H18.795c-2.75,0-5-2.25-5-5v-27.515c0-2.75,2.25-5,5-5H34.97v-32.513c0-2.75,1.953-3.883,4.34-2.517l68.98,39.463
		c2.387,1.366,6.293,1.366,8.68,0l45.413-25.979V249.66C157.072,257.041,148.415,261.852,138.629,261.852z"/>
	<path style="fill:#34A1D7;" d="M480.351,219.603h-27.915c-14.068,12.523-32.665,20.149-53.065,20.149
		c-18.838,0-36.133-6.513-49.752-17.371v56.737l45.41,25.979c2.387,1.366,6.293,1.366,8.68,0l68.981-39.463
		c2.387-1.366,4.34-0.233,4.34,2.517v88.015c0,2.75-1.903,6.201-4.229,7.668l-38.207,24.111h58.612c2.761,0,5-2.238,5-5V237.458
		C498.205,227.613,490.196,219.603,480.351,219.603z"/>
</g>
<path style="opacity:0.1;fill:#231F20;enable-background:new    ;" d="M41,382.946v-44.767H18.795c-2.75,0-5-2.25-5-5v-27.515
	c0-2.75,2.25-5,5-5H41v-63.206c0-9.846,8.009-17.855,17.854-17.855H31.649c-9.845,0-17.854,8.01-17.854,17.855v145.487
	c0,2.762,2.239,5,5,5H46C43.239,387.946,41,385.708,41,382.946z"/>
<path style="fill:#FFFFFF;" d="M162.382,222.381c-13.616,10.859-30.911,17.371-49.751,17.371c-20.109,0-38.46-7.42-52.456-19.628
	c-1.788,3.785-2.792,8.014-2.792,12.478c0,16.154,13.095,29.249,29.248,29.249c11.324,0,21.139-6.44,25.999-15.855
	c4.86,9.414,14.675,15.855,25.999,15.855c9.786,0,18.443-4.811,23.752-12.191v-27.279H162.382z"/>
<path style="fill:#FFB889;" d="M33.184,161.018v-33.857h-4.32c-11.8,0-21.363,9.491-21.363,21.199
	c0,11.705,9.563,21.197,21.363,21.197h4.793C33.351,166.751,33.184,163.904,33.184,161.018z"/>
<path style="fill:#FFD4B2;" d="M162.382,167.935c1.333-18.825,9.366-35.798,21.725-48.552c-29.271-4.372-42.41-31.74-42.41-31.74
	c-16.793,33.297-108.513,28.54-108.513,28.54v44.835c0,43.483,35.573,78.734,79.448,78.734c18.838,0,36.133-6.511,49.751-17.366
	L162.382,167.935L162.382,167.935z"/>
<path style="opacity:0.1;fill:#231F20;enable-background:new    ;" d="M61,161.018v-44.979c-15.964,0.76-27.816,0.145-27.816,0.145
	v44.835c0,43.483,35.573,78.734,79.448,78.734c4.748,0,9.39-0.437,13.909-1.228C89.299,232.004,61,199.796,61,161.018z"/>
<path style="fill:#FB8276;" d="M133.13,188.877H92.132c-4.027,0-7.321,3.294-7.321,7.321v38.579
	c8.66,3.209,18.031,4.975,27.821,4.975s19.16-1.764,27.819-4.975v-38.579C140.451,192.171,137.157,188.877,133.13,188.877z"/>
<path style="fill:#08375E;" d="M192.078,112.212V80.984h-0.115c-1.957-34.69-30.698-62.22-65.878-62.22H99.176
	c-34.857,0-63.381,27.029-65.806,61.269l-0.187-0.002v36.152c0,0,91.72,4.757,108.513-28.54c0,0,13.139,27.368,42.41,31.74
	C186.595,116.816,189.258,114.419,192.078,112.212z"/>
<g style="opacity:0.1;">
	<path style="fill:#231F20;" d="M61,80.031l0.187,0.002c2.414-34.089,30.701-61.022,65.35-61.258
		c-0.151-0.001-0.3-0.011-0.452-0.011H99.176c-34.857,0-63.381,27.029-65.806,61.269l-0.187-0.002v36.152
		c0,0,11.852,0.615,27.816-0.145L61,80.031L61,80.031z"/>
</g>
<path style="fill:#89C947;" d="M167.382,290.417c-2.75,0-5-2.25-5-5v-6.299l-45.413,25.979c-2.387,1.366-6.293,1.366-8.68,0
	l-68.98-39.463c-2.387-1.366-4.34-0.233-4.34,2.517v32.513h10.046c2.75,0,5,2.25,5,5v27.515c0,2.75-2.25,5-5,5H34.97v17.987
	c0,2.75,1.903,6.201,4.229,7.668l69.203,43.672c2.326,1.468,6.131,1.468,8.457,0l40.162-25.345v-53.979
	c0-9.846,8.009-17.855,17.854-17.855h15.416v-19.909L167.382,290.417L167.382,290.417z"/>
<path style="fill:#FFD4B2;" d="M50.016,333.179c0,2.75-2.25,5-5,5h-26.22c-2.75,0-5-2.25-5-5v-27.515c0-2.75,2.25-5,5-5h26.22
	c2.75,0,5,2.25,5,5V333.179z"/>
<path style="fill:#FFFFFF;" d="M451.825,220.126c-13.994,12.207-32.344,19.626-52.455,19.626c-18.839,0-36.135-6.513-49.752-17.374
	v27.282c5.31,7.38,13.967,12.191,23.752,12.191c11.324,0,21.139-6.44,25.999-15.855c4.86,9.414,14.674,15.855,25.999,15.855
	c16.153,0,29.249-13.095,29.249-29.249C454.617,228.139,453.613,223.912,451.825,220.126z"/>
<path style="fill:#FFB889;" d="M483.136,127.161h-4.32v33.857c0,2.886-0.168,5.733-0.473,8.539h4.792
	c11.801,0,21.364-9.492,21.364-21.197C504.5,136.652,494.938,127.161,483.136,127.161z"/>
<path style="fill:#FFD4B2;" d="M428.435,87.643c-14.539,28.828-85.222,29.131-103.94,28.693
	c14.479,13.272,23.949,31.894,25.123,52.719v53.326c13.619,10.858,30.914,17.371,49.752,17.371
	c43.881,0,79.446-35.251,79.446-78.734v-41.029C443.937,119.989,428.435,87.643,428.435,87.643z"/>
<path style="fill:#FB8276;" d="M419.869,188.877H378.87c-4.027,0-7.321,3.294-7.321,7.321v38.578
	c8.66,3.211,18.031,4.976,27.821,4.976s19.161-1.765,27.82-4.974v-38.58C427.19,192.171,423.896,188.877,419.869,188.877z"/>
<path style="fill:#08375E;" d="M478.701,80.984c-1.956-34.69-30.698-62.22-65.878-62.22h-26.909
	c-34.857,0-63.568,27.029-65.993,61.269v32.523c1.515,1.202,2.975,2.467,4.395,3.776c18.453,0.443,89.534,0.228,104.118-28.689
	c0,0,15.502,32.346,50.381,32.346V80.984H478.701z"/>
<path style="fill:#89C947;" d="M466.984,338.179c-2.75,0-5-2.25-5-5v-27.515c0-2.75,2.25-5,5-5h10.044v-32.513
	c0-2.75-1.953-3.883-4.34-2.517l-68.981,39.463c-2.387,1.366-6.293,1.366-8.68,0l-45.41-25.979v6.299c0,2.75-2.25,5-5,5h-22.909
	v19.909h15.128c9.845,0,17.854,8.01,17.854,17.855v53.799l40.448,25.525c2.326,1.468,6.131,1.468,8.457,0l69.204-43.672
	c2.326-1.467,4.229-4.918,4.229-7.668v-17.987L466.984,338.179L466.984,338.179z"/>
<ellipse style="fill:#FFFFFF;" cx="432.32" cy="353.18" rx="10.677" ry="8.305"/>
<path style="fill:#FFD4B2;" d="M498.205,333.179c0,2.75-2.25,5-5,5h-26.22c-2.75,0-5-2.25-5-5v-27.515c0-2.75,2.25-5,5-5h26.22
	c2.75,0,5,2.25,5,5V333.179z"/>
<path style="fill:#CB7C52;" d="M271.634,95.738h-31.709c-41.074,0-74.686,31.852-77.543,72.197v117.482c0,2.75,2.25,5,5,5h28.209
	c-9.358-12.42-14.9-27.83-14.9-44.522v-35.112c31.661-0.355,94.675-4.805,109.339-33.88c0,0,12.782,26.632,40.991,35.366v33.626
	c0,16.692-5.541,32.103-14.899,44.522h28.495c2.75,0,5-2.25,5-5V169.055C347.313,128.178,313.089,95.738,271.634,95.738z"/>
<path style="fill:#EF5A50;" d="M336.837,310.327h-26.569c0.538,2.215,0.834,4.522,0.834,6.903c0,16.154-13.095,29.249-29.249,29.249
	c-11.324,0-21.138-6.441-25.998-15.855c-4.86,9.414-14.674,15.855-25.998,15.855c-16.154,0-29.248-13.095-29.248-29.249
	c0-2.381,0.297-4.688,0.834-6.903h-26.569c-9.845,0-17.854,8.01-17.854,17.855v145.487c0,2.762,2.239,5,5,5h187.672
	c2.761,0,5-2.238,5-5V328.182C354.692,318.336,346.683,310.327,336.837,310.327z"/>
<path style="opacity:0.1;fill:#231F20;enable-background:new    ;" d="M184.328,473.669v-50.862h-22.307c-2.75,0-5-2.25-5-5v-27.514
	c0-2.75,2.25-5,5-5h22.307v-57.111c0-9.846,8.009-17.855,17.854-17.855h-27.308c-9.845,0-17.854,8.01-17.854,17.855v145.487
	c0,2.762,2.239,5,5,5h27.308C186.567,478.669,184.328,476.431,184.328,473.669z"/>
<path style="fill:#FFFFFF;" d="M255.856,320.386c-19.401,0-37.083-7.288-50.419-19.249c-3.049,4.617-4.828,10.146-4.828,16.093
	c0,16.154,13.095,29.249,29.248,29.249c11.324,0,21.138-6.441,25.998-15.855c4.86,9.414,14.674,15.855,25.998,15.855
	c16.154,0,29.249-13.095,29.249-29.249c0-5.946-1.779-11.475-4.828-16.091C292.941,313.099,275.259,320.386,255.856,320.386z"/>
<path style="fill:#FFD4B2;" d="M290.03,176.903c-14.664,29.075-77.679,33.524-109.339,33.88v35.112
	c0,41.14,33.655,74.491,75.165,74.491c41.516,0,75.165-33.352,75.165-74.491v-33.626C302.813,203.535,290.03,176.903,290.03,176.903
	z"/>
<path style="opacity:0.1;fill:#231F20;enable-background:new    ;" d="M202.669,245.895v-35.971
	c-8.152,0.557-15.681,0.788-21.979,0.858v35.112c0,41.14,33.655,74.491,75.165,74.491c3.734,0,7.402-0.279,10.99-0.801
	C230.546,314.314,202.669,283.334,202.669,245.895z"/>
<path style="fill:#FB8276;" d="M275.25,272.253h-38.789c-3.81,0-6.926,3.117-6.926,6.926v36.5
	c8.193,3.037,17.059,4.707,26.321,4.707c9.263,0,18.127-1.668,26.32-4.707v-36.5C282.177,275.371,279.06,272.253,275.25,272.253z"/>
<path style="fill:#89C947;" d="M323.471,385.293h10.044v-32.515c0-2.75-1.953-3.883-4.34-2.517l-68.982,39.463
	c-2.387,1.366-6.293,1.366-8.68,0l-68.979-39.463c-2.387-1.366-4.34-0.233-4.34,2.517v32.515h10.045c2.75,0,5,2.25,5,5v27.514
	c0,2.75-2.25,5-5,5h-10.045v17.986c0,2.75,1.903,6.201,4.229,7.668l69.202,43.674c2.326,1.467,6.131,1.467,8.457,0l69.204-43.674
	c2.326-1.467,4.228-4.918,4.228-7.668v-17.986H323.47c-2.75,0-5-2.25-5-5v-27.514C318.471,387.543,320.721,385.293,323.471,385.293z
	"/>
<g>
	<path style="fill:#FFD4B2;" d="M193.241,417.807c0,2.75-2.25,5-5,5h-26.22c-2.75,0-5-2.25-5-5v-27.514c0-2.75,2.25-5,5-5h26.22
		c2.75,0,5,2.25,5,5V417.807z"/>
	<path style="fill:#FFD4B2;" d="M354.691,417.807c0,2.75-2.25,5-5,5h-26.22c-2.75,0-5-2.25-5-5v-27.514c0-2.75,2.25-5,5-5h26.22
		c2.75,0,5,2.25,5,5V417.807z"/>
</g>
<ellipse style="fill:#FFFFFF;" cx="290.68" cy="438.71" rx="10.677" ry="8.305"/>
<path d="M110.529,171.221h7.204c4.142,0,7.5-3.357,7.5-7.5s-3.358-7.5-7.5-7.5h-2.704v-8.764c0-4.143-3.358-7.5-7.5-7.5
	s-7.5,3.357-7.5,7.5v13.264C100.029,166.511,104.739,171.221,110.529,171.221z"/>
<path d="M77.43,154.195c1.464,1.464,3.383,2.196,5.303,2.196s3.839-0.732,5.304-2.197c2.929-2.929,2.928-7.678-0.001-10.606
	c-10.02-10.02-26.324-10.018-36.343,0c-2.929,2.929-2.929,7.678,0,10.606c2.929,2.929,7.678,2.93,10.607,0.001
	C66.468,150.023,73.257,150.022,77.43,154.195z"/>
<path d="M480.351,212.103h-11c7.604-10.221,13.004-22.147,15.462-35.098C499.95,176.138,512,163.624,512,148.36
	c0-14.756-11.259-26.941-25.684-28.521V91.561V80.984c0-0.621-0.076-1.225-0.218-1.802c-2.865-38.198-34.788-67.918-73.275-67.918
	h-26.909c-37.805,0-69.602,29.073-73.144,66.507c-0.229,0.725-0.349,13.79-0.349,13.79v7.087
	c-12.144-6.631-26.044-10.41-40.788-10.41h-31.709c-14.531,0-28.285,3.722-40.348,10.252c0,0,0.142-18.729,0-19.305
	c-2.866-38.198-35.005-67.921-73.493-67.921H99.176c-37.805,0-69.601,29.071-73.144,66.505c-0.229,0.725-0.349,1.487-0.349,2.262
	v39.808C11.26,121.417,0,133.603,0,148.36c0,15.264,12.05,27.779,27.188,28.646c2.458,12.946,7.84,24.879,15.44,35.098H31.649
	c-13.98,0-25.354,11.374-25.354,25.355v145.487c0,6.893,5.607,12.5,12.5,12.5h56.441l29.162,18.403
	c2.308,1.456,5.231,2.258,8.231,2.258s5.924-0.802,8.231-2.258l28.66-18.086v77.906c0,6.893,5.607,12.5,12.5,12.5h66.1l19.505,12.31
	c2.307,1.455,5.23,2.257,8.23,2.257c2.999,0,5.922-0.802,8.231-2.258l19.504-12.309h66.102c6.893,0,12.5-5.607,12.5-12.5v-78.087
	l28.945,18.267c2.308,1.456,5.231,2.258,8.232,2.258s5.924-0.802,8.231-2.258l29.163-18.403h56.443c6.893,0,12.5-5.607,12.5-12.5
	v-98.762c0-4.142-3.358-7.5-7.5-7.5s-7.5,3.358-7.5,7.5v8.98h-6.176v-25.013c0-6.041-4.266-10.597-9.922-10.597
	c-1.924,0-3.823,0.529-5.642,1.57l-68.896,39.414c-0.101,0.029-0.353,0.083-0.701,0.083c-0.347,0-0.6-0.054-0.701-0.083
	l-41.782-23.903c-0.003-2.69-0.007-5.792-0.011-9.216c4.964,2.509,10.565,3.932,16.497,3.932c9.944,0,19.218-3.958,25.999-10.763
	c6.78,6.805,16.054,10.763,25.999,10.763c20.263,0,36.749-16.485,36.749-36.749c0-1.871-0.157-3.704-0.428-5.5h18.662
	c5.71,0,10.355,4.646,10.355,10.355v10.723c0,4.143,3.358,7.5,7.5,7.5s7.5-3.357,7.5-7.5v-10.723
	C505.705,223.477,494.331,212.103,480.351,212.103z M486.316,161.018v-25.98c6.114,1.426,10.684,6.851,10.684,13.321
	c0,6.474-4.573,11.899-10.692,13.321C486.31,161.46,486.316,161.24,486.316,161.018z M490.705,380.446h-30.174l16.271-10.267
	c4.478-2.824,7.728-8.717,7.728-14.012V345.68h6.176L490.705,380.446L490.705,380.446z M490.705,308.165v22.515h-21.22v-22.515
	L490.705,308.165L490.705,308.165z M406.868,311.898c0.188-0.096,0.377-0.184,0.564-0.29l62.097-35.525v17.081h-2.544
	c-6.893,0-12.5,5.607-12.5,12.5v27.515c0,6.893,5.607,12.5,12.5,12.5h2.544v10.411c-0.071,0.406-0.489,1.165-0.794,1.441
	l-61.867,39.041L406.868,311.898L406.868,311.898z M471.316,161.018c0,26.574-14.784,49.781-36.626,62.023v-26.843
	c0-8.173-6.649-14.821-14.821-14.821H378.87c-8.172,0-14.821,6.648-14.821,14.821v26.829c-2.507-1.407-4.923-2.956-7.233-4.642
	c-0.032-26.016-0.063-49.693-0.066-49.753c-0.334-5.935-1.286-11.695-2.768-17.231c3.531-0.887,7.428,0.036,10.185,2.793
	c2.929,2.928,7.678,2.928,10.606,0c2.929-2.93,2.929-7.678,0-10.607c-7.01-7.01-17.089-9.09-25.946-6.289
	c-2.236-4.757-4.888-9.276-7.924-13.499c28.441-0.725,68.112-5.188,86.934-23.114c7.34,9.788,21.439,23.709,43.479,26.355
	L471.316,161.018L471.316,161.018z M399.37,232.252c-7.058,0-13.875-1.02-20.321-2.908v-32.967h40.641v32.964
	C413.242,231.224,406.427,232.252,399.37,232.252z M327.422,80.563c2.156-30.448,27.943-54.299,58.493-54.299h26.909
	c30.998,0,56.646,24.222,58.389,55.142c0.017,0.303,0.052,0.601,0.104,0.892v29.591c-24.367-3.984-35.618-26.462-36.118-27.486
	c-1.235-2.578-3.829-4.229-6.688-4.259c-0.025,0-0.051,0-0.076,0c-2.829,0-5.42,1.593-6.696,4.123
	c-9.168,18.176-52.531,24.652-90.057,24.652c-1.553,0-2.98-0.012-4.26-0.029C327.422,108.889,327.395,80.951,327.422,80.563z
	 M271.634,103.238c37.17,0,67.936,28.995,70.128,66.045l0.112,37.74c-30.484-4.089-44.466-32.098-45.081-33.361
	c-1.235-2.578-3.829-4.23-6.688-4.259c-0.025,0-0.051,0-0.076,0c-2.829,0-5.42,1.593-6.696,4.123
	c-9.406,18.649-49.45,29.784-107.118,29.784c-2.379,0-4.509-0.022-6.333-0.055v-35.049c2.718-36.451,33.434-64.969,70.043-64.969
	h31.709V103.238z M341.898,222.125v60.793h-12.32c5.706-11.131,8.944-23.705,8.944-37.022v-24.212
	C339.631,221.853,340.752,222.006,341.898,222.125z M237.036,310.23v-30.477h37.641v30.477c-5.979,1.717-12.289,2.656-18.82,2.656
	C249.325,312.886,243.015,311.947,237.036,310.23z M248.958,327.6c-3.821,7.027-11.09,11.379-19.1,11.379
	c-11.992,0-21.748-9.757-21.748-21.749c0-1.422,0.147-2.81,0.409-4.156C220.165,321.171,234.002,326.369,248.958,327.6z
	 M303.194,313.074c0.262,1.347,0.409,2.734,0.409,4.156c0,11.992-9.756,21.749-21.749,21.749c-8.01,0-15.279-4.352-19.101-11.379
	C277.71,326.369,291.548,321.172,303.194,313.074z M289.677,303.88v-24.701c0-7.954-6.472-14.426-14.426-14.426h-38.789
	c-7.955,0-14.426,6.472-14.426,14.426v24.701c-20.211-11.6-33.845-33.238-33.845-57.985v-27.756
	c33.721-0.951,80.238-6.421,101.301-27.889c6.26,8.659,17.38,20.717,34.029,27.366v28.278
	C323.522,270.642,309.888,292.281,289.677,303.88z M182.135,282.917h-12.253v-64.659c1.018,0.017,2.127,0.03,3.309,0.04v27.597
	C173.191,259.212,176.429,271.787,182.135,282.917z M40.684,81.701c0.084-0.369,0.141-0.749,0.168-1.138
	c2.156-30.448,27.775-54.299,58.324-54.299h26.909c30.998,0,56.646,24.222,58.39,55.142c0.017,0.302,0.052,0.599,0.103,0.889v26.49
	c-0.963,0.824-1.909,1.668-2.834,2.534c-22.402-5.177-32.804-25.934-33.284-26.917c-1.235-2.578-3.829-4.229-6.688-4.259
	c-0.025,0-0.051,0-0.076,0c-2.829,0-5.42,1.593-6.696,4.123c-9.166,18.176-52.531,24.652-90.056,24.652
	c-1.553,0-2.98-0.012-4.26-0.029L40.684,81.701L40.684,81.701z M15,148.36c0-6.472,4.569-11.895,10.684-13.321v25.98
	c0,0.222,0.007,0.442,0.008,0.663C19.574,160.259,15,154.833,15,148.36z M40.684,123.891c1.291,0.017,2.71,0.027,4.26,0.027
	c28.368,0,75.195-3.27,96.156-23.233c5.681,7.576,15.425,17.613,29.751,22.998c-3.063,4.228-5.749,8.745-8.007,13.508
	c-8.777-2.644-18.693-0.525-25.617,6.396c-2.929,2.93-2.929,7.678,0,10.607c2.929,2.928,7.678,2.928,10.606,0
	c2.653-2.653,6.363-3.611,9.786-2.891c-1.402,5.186-2.326,10.568-2.718,16.102c-0.005,0.08-0.01,24.563-0.013,51.204
	c-2.218,1.601-4.538,3.069-6.937,4.416v-26.827c0-8.173-6.648-14.821-14.821-14.821H92.132c-8.172,0-14.821,6.648-14.821,14.821
	v26.842c-21.843-12.242-36.627-35.448-36.627-62.022C40.684,161.018,40.684,123.891,40.684,123.891z M81.815,241.652
	c0.242,0.105,0.49,0.201,0.745,0.281c6.531,2.395,13.43,4.031,20.587,4.805c-4.079,4.779-10.055,7.614-16.515,7.614
	c-11.84,0-21.494-9.513-21.737-21.296C70.165,236.502,75.832,239.396,81.815,241.652z M132.951,229.343
	c-6.446,1.887-13.263,2.909-20.319,2.909c-7.057,0-13.872-1.028-20.321-2.912v-32.963h40.64V229.343z M142.615,241.958
	c0.328-0.099,0.644-0.223,0.952-0.363c3.915-1.485,7.697-3.239,11.319-5.246c0,3.633-0.001,7.21-0.001,10.682
	c-3.987,4.487-9.795,7.322-16.255,7.322c-6.463,0-12.442-2.837-16.521-7.62C129.236,245.96,136.107,244.337,142.615,241.958z
	 M31.649,227.103h18.663c-0.272,1.796-0.429,3.629-0.429,5.5c0,20.264,16.485,36.749,36.748,36.749
	c9.944,0,19.219-3.958,25.999-10.763c6.781,6.805,16.055,10.763,25.999,10.763c5.835,0,11.351-1.376,16.254-3.81
	c-0.001,3.43-0.001,6.54-0.001,9.226L113.33,298.54c-0.101,0.029-0.354,0.083-0.701,0.083s-0.6-0.054-0.701-0.083l-68.893-39.413
	c-1.821-1.042-3.72-1.571-5.644-1.571c-5.656,0-9.922,4.556-9.922,10.597v25.013h-6.175V237.46
	C21.295,231.749,25.94,227.103,31.649,227.103z M21.295,330.679v-22.515h21.22v22.515L21.295,330.679L21.295,330.679z
	 M21.295,380.446v-34.767h6.175v10.487c0,5.295,3.25,11.188,7.726,14.011l16.271,10.268H21.295V380.446z M149.52,328.182v49.843
	l-29.391,18.548v-31.392c0-4.143-3.358-7.5-7.5-7.5s-7.5,3.357-7.5,7.5v31.392l-61.865-39.041c-0.305-0.276-0.724-1.035-0.794-1.441
	V345.68h2.546c6.893,0,12.5-5.607,12.5-12.5v-27.515c0-6.893-5.607-12.5-12.5-12.5H42.47v-17.081l62.094,35.524
	c0.188,0.107,0.377,0.194,0.566,0.291v17.282c0,4.143,3.358,7.5,7.5,7.5s7.5-3.357,7.5-7.5v-17.282
	c0.188-0.096,0.377-0.184,0.564-0.29l35.629-20.383c2.096,3.974,6.264,6.692,11.06,6.692h15.408v4.909h-7.916
	C160.894,302.827,149.52,314.201,149.52,328.182z M164.52,471.169v-40.862h6.175v10.486c0,5.295,3.25,11.188,7.726,14.011
	l25.931,16.365L164.52,471.169L164.52,471.169z M164.521,415.307v-22.514h21.22v22.514H164.521z M248.355,481.202l-61.865-39.043
	c-0.305-0.276-0.724-1.035-0.794-1.441v-10.41h2.545c6.893,0,12.5-5.607,12.5-12.5v-27.514c0-6.893-5.607-12.5-12.5-12.5h-2.545
	V360.71l62.093,35.523c0.188,0.107,0.377,0.194,0.566,0.291L248.355,481.202L248.355,481.202z M263.354,481.202v-84.677
	c0.188-0.096,0.377-0.184,0.564-0.29l62.097-35.524v17.083h-2.544c-6.893,0-12.5,5.607-12.5,12.5v27.514
	c0,6.893,5.607,12.5,12.5,12.5h2.544v10.41c-0.071,0.406-0.489,1.165-0.794,1.441L263.354,481.202z M347.191,392.793v22.514h-21.22
	v-22.514H347.191z M347.192,471.169h-39.834l25.93-16.364c4.478-2.824,7.728-8.717,7.728-14.012v-10.486h6.176L347.192,471.169
	L347.192,471.169z M347.192,377.793h-6.176v-25.015c0-6.041-4.266-10.597-9.922-10.597c-1.924,0-3.823,0.529-5.642,1.57
	l-68.896,39.414c-0.101,0.029-0.354,0.083-0.701,0.083s-0.6-0.054-0.701-0.083l-68.893-39.413c-1.821-1.042-3.72-1.571-5.644-1.571
	c-5.656,0-9.922,4.556-9.922,10.597v25.015h-6.175v-49.611c0-5.71,4.645-10.355,10.354-10.355h18.251
	c0.321,19.988,16.67,36.152,36.733,36.152c9.944,0,19.218-3.958,25.998-10.763c6.781,6.805,16.055,10.763,25.998,10.763
	c20.063,0,36.412-16.164,36.733-36.152h18.25c5.71,0,10.354,4.645,10.354,10.355L347.192,377.793L347.192,377.793z M391.868,311.898
	v84.675l-29.676-18.728v-49.663c0-13.982-11.374-25.355-25.354-25.355h-7.628v-4.909h15.189c4.835,0,9.028-2.764,11.107-6.791
	l35.797,20.48C391.49,311.714,391.679,311.801,391.868,311.898z M373.371,254.352c-6.605,0-12.527-2.964-16.52-7.627
	c-0.004-3.429-0.008-6.955-0.013-10.533c9.972,5.573,21.155,9.25,33.053,10.54C385.813,251.515,379.833,254.352,373.371,254.352z
	 M425.368,254.352c-6.467,0-12.449-2.84-16.527-7.629c14.019-1.514,27.045-6.34,38.265-13.681
	C446.87,244.832,437.213,254.352,425.368,254.352z"/>
<path d="M404.471,156.221h-2.704v-8.764c0-4.143-3.358-7.5-7.5-7.5s-7.5,3.357-7.5,7.5v13.264c0,5.79,4.71,10.5,10.5,10.5h7.204
	c4.142,0,7.5-3.357,7.5-7.5C411.971,159.579,408.613,156.221,404.471,156.221z"/>
<path d="M423.964,154.194c2.928,2.929,7.677,2.93,10.606,0.001c4.172-4.172,10.959-4.173,15.131,0
	c1.465,1.464,3.384,2.196,5.303,2.196s3.839-0.732,5.304-2.197c2.929-2.929,2.928-7.678,0-10.606
	c-10.021-10.019-26.324-10.02-36.343,0C421.036,146.516,421.035,151.265,423.964,154.194z"/>
<path d="M260.684,240.955h-2.155v-4.104c0-4.143-3.358-7.5-7.5-7.5s-7.5,3.357-7.5,7.5v8.604c0,5.79,4.711,10.5,10.5,10.5h6.655
	c4.142,0,7.5-3.357,7.5-7.5S264.826,240.955,260.684,240.955z"/>
<path d="M215.394,221.876c-6.6,0-12.807,2.572-17.479,7.244c-2.929,2.929-2.928,7.678,0.001,10.606
	c2.93,2.928,7.677,2.929,10.607-0.001c1.837-1.838,4.278-2.85,6.871-2.85s5.033,1.012,6.872,2.851
	c1.464,1.464,3.384,2.196,5.303,2.196c1.919,0,3.839-0.732,5.303-2.196c2.929-2.93,2.929-7.678,0-10.607
	C228.201,224.449,221.994,221.876,215.394,221.876z"/>
<path d="M296.318,221.876c-6.6,0-12.807,2.572-17.478,7.243c-2.929,2.93-2.929,7.678,0,10.607c1.464,1.464,3.384,2.196,5.303,2.196
	s3.839-0.732,5.303-2.196c1.838-1.839,4.279-2.851,6.872-2.851c2.593,0,5.034,1.012,6.871,2.85c2.929,2.93,7.678,2.929,10.607,0.001
	c2.929-2.929,2.929-7.678,0.001-10.606C309.125,224.449,302.918,221.876,296.318,221.876z"/>
<path d="M301.354,389.681c-4.142,0-7.5,3.357-7.5,7.5v25.978c-1.033-0.16-2.091-0.258-3.176-0.258
	c-10.023,0-18.178,7.09-18.178,15.805s8.155,15.805,18.178,15.805c9.7,0,17.675-6.647,18.176-14.975c0.03-0.272,0-42.355,0-42.355
	C308.854,393.039,305.497,389.681,301.354,389.681z M290.678,439.511c-1.402,0-2.381-0.445-2.884-0.805
	c0.503-0.36,1.482-0.805,2.884-0.805s2.38,0.444,2.882,0.805C293.058,439.066,292.08,439.511,290.678,439.511z"/>
<path d="M443,304.156c-4.142,0-7.5,3.357-7.5,7.5v25.978c-1.033-0.16-2.091-0.258-3.176-0.258c-10.023,0-18.178,7.09-18.178,15.805
	s8.155,15.805,18.178,15.805c9.7,0,17.675-6.646,18.176-14.975c0.03-0.273,0-42.355,0-42.355
	C450.5,307.513,447.142,304.156,443,304.156z M432.324,353.986c-1.402,0-2.381-0.445-2.884-0.805
	c0.503-0.36,1.481-0.805,2.884-0.805c1.402,0,2.38,0.444,2.882,0.805C434.704,353.541,433.726,353.986,432.324,353.986z"/>
<g>
</g>
<g>
</g>
<g>
</g>
<g>
</g>
<g>
</g>
<g>
</g>
<g>
</g>
<g>
</g>
<g>
</g>
<g>
</g>
<g>
</g>
<g>
</g>
<g>
</g>
<g>
</g>
<g>
</g>
</svg>
