<?xml version="1.0"?>
<svg xmlns="http://www.w3.org/2000/svg" xmlns:xlink="http://www.w3.org/1999/xlink" xmlns:svgjs="http://svgjs.com/svgjs" version="1.1" width="512" height="512" x="0" y="0" viewBox="0 0 464 464" style="enable-background:new 0 0 512 512" xml:space="preserve" class=""><g><path xmlns="http://www.w3.org/2000/svg" d="m239.816406 144h27.144532c-6.953126-14.574219-10.960938-30.808594-10.960938-48 0-16.015625 3.441406-31.222656 9.519531-45.015625-2.671875-3-5.519531-5.792969-8.398437-8.550781-6.144532 5.917968-17.929688 15.566406-35.976563 23.636718 10.0625 21.730469 17.527344 47.753907 18.671875 77.929688zm0 0" fill="#76b82a" data-original="#000000" style="" class=""/><path xmlns="http://www.w3.org/2000/svg" d="m244.960938 31.945312c-20.136719-15.585937-43.847657-25.800781-69.015626-29.824218 11.292969 11.125 25.65625 27.75 37.925782 49.71875 15.480468-6.792969 25.65625-14.808594 31.089844-19.894532zm0 0" fill="#76b82a" data-original="#000000" style="" class=""/><path xmlns="http://www.w3.org/2000/svg" d="m160 9.207031v54.527344c14.664062-.644531 27.382812-2.964844 38.265625-6.214844-12.898437-22.304687-27.898437-38.609375-38.265625-48.3125zm0 0" fill="#76b82a" data-original="#000000" style="" class=""/><path xmlns="http://www.w3.org/2000/svg" d="m205.855469 71.871094c-12.894531 4.152344-28.144531 7.136718-45.855469 7.855468v64.273438h63.625c-1.191406-27.800781-8.226562-51.984375-17.769531-72.128906zm0 0" fill="#76b82a" data-original="#000000" style="" class=""/><path xmlns="http://www.w3.org/2000/svg" d="m300.304688 185.015625c-9.257813-7.054687-17.410157-15.464844-24.082032-25.015625h-36.496094c-.582031 15.070312-2.789062 29.9375-6.636718 44.367188 4.261718 5.441406 6.910156 12.199218 6.910156 19.632812 0 7.558594-2.742188 14.414062-7.136719 19.894531 11.59375 6.546875 19.59375 13.21875 24.273438 17.722657 21.160156-20.234376 36.519531-46.617188 43.167969-76.601563zm0 0" fill="#76b82a" data-original="#000000" style="" class=""/><path xmlns="http://www.w3.org/2000/svg" d="m344 280c0 13.230469 10.769531 24 24 24s24-10.769531 24-24v-40h-48zm0 0" fill="#76b82a" data-original="#000000" style="" class=""/><path xmlns="http://www.w3.org/2000/svg" d="m368 192c52.9375 0 96-43.0625 96-96s-43.0625-96-96-96-96 43.0625-96 96 43.0625 96 96 96zm0-176c44.113281 0 80 35.886719 80 80s-35.886719 80-80 80-80-35.886719-80-80 35.886719-80 80-80zm0 0" fill="#76b82a" data-original="#000000" style="" class=""/><path xmlns="http://www.w3.org/2000/svg" d="m224 224c0 8.835938-7.164062 16-16 16s-16-7.164062-16-16 7.164062-16 16-16 16 7.164062 16 16zm0 0" fill="#76b82a" data-original="#000000" style="" class=""/><path xmlns="http://www.w3.org/2000/svg" d="m392 205.34375c-7.742188 1.695312-15.761719 2.65625-24 2.65625s-16.257812-.960938-24-2.65625v18.65625h48zm0 0" fill="#76b82a" data-original="#000000" style="" class=""/><path xmlns="http://www.w3.org/2000/svg" d="m432 96c0 35.347656-28.652344 64-64 64s-64-28.652344-64-64 28.652344-64 64-64 64 28.652344 64 64zm0 0" fill="#76b82a" data-original="#000000" style="" class=""/><path xmlns="http://www.w3.org/2000/svg" d="m244.886719 272.054688c-4.984375-4.574219-13.933594-11.566407-26.839844-17.824219-2.046875.679687-4.167969 1.144531-6.375 1.402343-11.910156 20.367188-25.34375 35.886719-35.992187 46.40625 25.59375-4.054687 49.289062-14.582031 69.207031-29.984374zm0 0" fill="#76b82a" data-original="#000000" style="" class=""/><path xmlns="http://www.w3.org/2000/svg" d="m194.601562 252.960938c-4.953124-2.304688-9.203124-5.824219-12.394531-10.191407-7.144531-1.304687-14.582031-2.050781-22.207031-2.394531v54.457031c9.414062-8.742187 22.632812-22.824219 34.601562-41.871093zm0 0" fill="#76b82a" data-original="#000000" style="" class=""/><path xmlns="http://www.w3.org/2000/svg" d="m176 224c0-17.648438 14.351562-32 32-32 3.945312 0 7.679688.816406 11.175781 2.121094 2.558594-11.160156 4.0625-22.570313 4.542969-34.121094h-63.71875v64.382812c5.488281.226563 10.878906.65625 16.175781 1.335938-.03125-.574219-.175781-1.125-.175781-1.71875zm0 0" fill="#76b82a" data-original="#000000" style="" class=""/><path xmlns="http://www.w3.org/2000/svg" d="m82.855469 237.9375c-10.0625-21.730469-17.527344-47.761719-18.664063-77.9375h-63.785156c2.089844 39.824219 19.464844 75.609375 46.496094 101.550781 6.144531-5.925781 17.929687-15.550781 35.953125-23.613281zm0 0" fill="#76b82a" data-original="#000000" style="" class=""/><path xmlns="http://www.w3.org/2000/svg" d="m344 448h-37.769531l-16-48h-116.46875l-10.664063 32h116.902344v16h-160c-4.414062 0-8 3.585938-8 8v8h240v-8c0-4.40625-3.585938-8-8-8zm0 0" fill="#76b82a" data-original="#000000" style="" class=""/><path xmlns="http://www.w3.org/2000/svg" d="m72.488281 93.703125.191407.058594c-5.34375-5.722657-8.679688-13.335938-8.679688-21.761719 0-5.054688 1.289062-9.785156 3.382812-14.039062-9.535156-5.785157-16.285156-11.503907-20.472656-15.519532-27.039062 25.941406-44.414062 61.726563-46.503906 101.558594h63.882812c.664063-17.152344 3.320313-34.046875 8.199219-50.296875zm0 0" fill="#76b82a" data-original="#000000" style="" class=""/><path xmlns="http://www.w3.org/2000/svg" d="m408 200.488281v23.511719h16v16h-16v40c0 22.054688-17.945312 40-40 40s-40-17.945312-40-40v-40h-16v-16h16v-23.511719c-4.65625-1.792969-9.207031-3.777343-13.542969-6.144531-19.058593 73.296875-85.898437 125.65625-162.457031 125.65625-67.207031 0-125.160156-39.761719-152-96.910156v112.910156h464v-182.609375c-12.816406 21.351563-32.480469 38.066406-56 47.097656zm0 0" fill="#76b82a" data-original="#000000" style="" class=""/><path xmlns="http://www.w3.org/2000/svg" d="m126.222656 61.953125c5.785156.878906 11.722656 1.429687 17.777344 1.703125v-54.511719c-8.414062 7.824219-19.894531 19.925781-30.769531 35.976563 6.089843 3.917968 10.664062 9.847656 12.992187 16.832031zm0 0" fill="#76b82a" data-original="#000000" style="" class=""/><path xmlns="http://www.w3.org/2000/svg" d="m96 40c.472656 0 .910156.121094 1.375.136719 10.535156-16.3125 21.722656-29.039063 30.871094-38.097657-25.757813 4.074219-49.359375 14.570313-69.117188 29.898438 3.878906 3.574219 10.136719 8.597656 18.855469 13.648438 5.136719-3.515626 11.335937-5.585938 18.015625-5.585938zm0 0" fill="#76b82a" data-original="#000000" style="" class=""/><path xmlns="http://www.w3.org/2000/svg" d="m0 360c0 13.230469 10.769531 24 24 24h416c13.230469 0 24-10.769531 24-24v-8h-464zm0 0" fill="#76b82a" data-original="#000000" style="" class=""/><path xmlns="http://www.w3.org/2000/svg" d="m59.078125 272.023438c19.738281 15.320312 43.304687 25.824218 69.035156 29.914062-11.304687-11.128906-25.6875-27.769531-37.984375-49.769531-15.449218 6.777343-25.609375 14.777343-31.050781 19.855469zm0 0" fill="#76b82a" data-original="#000000" style="" class=""/><path xmlns="http://www.w3.org/2000/svg" d="m144 294.792969v-54.527344c-14.664062.644531-27.382812 2.964844-38.265625 6.214844 12.898437 22.304687 27.898437 38.609375 38.265625 48.3125zm0 0" fill="#76b82a" data-original="#000000" style="" class=""/><path xmlns="http://www.w3.org/2000/svg" d="m144 160h-63.625c1.191406 27.808594 8.21875 51.992188 17.769531 72.128906 12.894531-4.152344 28.144531-7.136718 45.855469-7.855468zm0 0" fill="#76b82a" data-original="#000000" style="" class=""/><path xmlns="http://www.w3.org/2000/svg" d="m112 72c0 8.835938-7.164062 16-16 16s-16-7.164062-16-16 7.164062-16 16-16 16 7.164062 16 16zm0 0" fill="#76b82a" data-original="#000000" style="" class=""/><path xmlns="http://www.w3.org/2000/svg" d="m144 79.65625c-5.640625-.230469-11.175781-.703125-16.632812-1.425781-2.910157 14.671875-15.855469 25.769531-31.367188 25.769531-3.246094 0-6.320312-.632812-9.273438-1.527344-3.703124 13.480469-5.847656 27.390625-6.4375 41.527344h63.710938zm0 0" fill="#76b82a" data-original="#000000" style="" class=""/></g></svg>
