<svg id="Capa_1" enable-background="new 0 0 512 512" height="512" viewBox="0 0 512 512" width="512" xmlns="http://www.w3.org/2000/svg"><g><path d="m287.623 222.351v-108.156h.898c17.601 0 31.92-14.319 31.92-31.92v-.176c0-17.601-14.319-31.92-31.92-31.92h-142.16c-17.601 0-31.92 14.319-31.92 31.92v.176c0 17.601 14.319 31.92 31.92 31.92h2.399v108.155l-137.247 192.396c-13.44 18.84-15.207 43.324-4.611 63.898s31.554 33.356 54.697 33.356h313.187c23.142 0 44.101-12.781 54.696-33.355s8.829-45.059-4.61-63.899zm-153.181-140.076v-.176c0-6.573 5.348-11.92 11.92-11.92h142.16c6.572 0 11.92 5.347 11.92 11.92v.176c0 6.573-5.348 11.92-11.92 11.92h-142.16c-6.573 0-11.92-5.347-11.92-11.92zm32.46 149.084c1.209-1.695 1.859-3.726 1.859-5.808v-111.356h98.862v111.356c0 2.082.65 4.112 1.859 5.808l59.23 83.029c-30.451 24.515-75.253 22.653-103.51-5.606-25.857-25.855-62.876-34.113-95.874-24.752zm244.799 238.129c-7.259 14.096-21.06 22.512-36.916 22.512h-313.186c-15.856 0-29.657-8.416-36.917-22.512-7.26-14.097-6.096-30.218 3.112-43.126l74.384-104.272c30.301-29.374 78.979-29.068 108.882.835 19.031 19.03 44.028 28.545 69.026 28.545 21.321 0 42.628-6.948 60.247-20.792l68.257 95.683c9.208 12.909 10.371 29.031 3.111 43.127z"/><circle cx="116.286" cy="417.901" r="15.609"/><circle cx="236.23" cy="444.323" r="15.609"/><ellipse cx="313.276" cy="412.145" rx="32.177" ry="32.177" transform="matrix(.924 -.383 .383 .924 -133.875 151.258)"/><ellipse cx="158.761" cy="360.954" rx="23.988" ry="23.988" transform="matrix(.973 -.23 .23 .973 -78.684 46.132)"/><path d="m500.288 11.696c-7.542-7.543-17.569-11.696-28.235-11.696s-20.693 4.153-28.235 11.695l-45.585 45.585c-15.568 15.569-15.568 40.901 0 56.471 7.542 7.542 17.569 11.696 28.235 11.696s20.693-4.153 28.236-11.696l45.584-45.584c15.569-15.57 15.569-40.902 0-56.471zm-59.726 87.912c-3.765 3.765-8.77 5.838-14.094 5.838-5.323 0-10.328-2.073-14.093-5.837-7.771-7.771-7.771-20.415 0-28.186l15.722-15.722 28.186 28.186zm45.584-45.584-15.721 15.721-28.186-28.186 15.721-15.721c3.765-3.764 8.77-5.837 14.093-5.837s10.328 2.073 14.093 5.838c3.765 3.764 5.838 8.769 5.838 14.093s-2.074 10.327-5.838 14.092z"/><path d="m417.76 183.104c-7.542-7.542-17.569-11.696-28.235-11.696s-20.693 4.153-28.235 11.695c-15.568 15.569-15.568 40.901 0 56.471l45.584 45.584c7.543 7.542 17.57 11.695 28.236 11.695s20.693-4.153 28.235-11.695c15.568-15.569 15.568-40.901 0-56.471zm-42.328 14.142c3.764-3.765 8.77-5.837 14.093-5.837s10.328 2.073 14.093 5.838l15.721 15.721-28.186 28.186-15.721-15.721c-7.772-7.772-7.772-20.416 0-28.187zm73.77 73.77c0 .001 0 .001 0 0-3.765 3.765-8.77 5.838-14.093 5.838-5.324 0-10.329-2.073-14.094-5.837l-15.721-15.721 28.186-28.186 15.721 15.721c3.765 3.764 5.838 8.769 5.838 14.093s-2.072 10.328-5.837 14.092z"/></g></svg>