<?xml version="1.0" encoding="iso-8859-1"?>
<!-- Generator: Adobe Illustrator 19.0.0, SVG Export Plug-In . SVG Version: 6.00 Build 0)  -->
<svg version="1.1" id="Capa_1" xmlns="http://www.w3.org/2000/svg" xmlns:xlink="http://www.w3.org/1999/xlink" x="0px" y="0px"
	 viewBox="0 0 484.578 484.578" style="enable-background:new 0 0 484.578 484.578;" xml:space="preserve">
<g>
	<g>
		<path d="M144.957,11.434L133.645,0.122c-68.616,68.785-68.616,180.127,0,248.912l11.312-11.312
			C82.587,175.185,82.587,73.97,144.957,11.434z"/>
	</g>
</g>
<g>
	<g>
		<path d="M351.003,0.067c-0.065-0.065-0.131-0.131-0.447,0.055l-11.312,11.312c62.37,62.537,62.37,163.751,0,226.288l11.312,11.312
			C419.43,180.268,419.769,68.94,351.003,0.067z"/>
	</g>
</g>
<g>
	<g>
		<path d="M167.597,34.074l-11.32-11.32c-56.148,56.272-56.148,147.376,0,203.648l11.32-11.32
			C117.688,165.067,117.688,84.089,167.597,34.074z"/>
	</g>
</g>
<g>
	<g>
		<path d="M327.925,22.754l-11.32,11.32c49.909,50.015,49.909,130.993,0,181.008l11.32,11.32
			C384.073,170.13,384.073,79.026,327.925,22.754z"/>
	</g>
</g>
<g>
	<g>
		<path d="M190.212,56.706L178.9,45.378c-43.691,43.762-43.691,114.638,0,158.4l11.312-11.312
			C152.783,154.952,152.783,94.219,190.212,56.706z"/>
	</g>
</g>
<g>
	<g>
		<path d="M305.301,45.378l-11.32,11.32c37.43,37.514,37.43,98.246,0,135.76l11.32,11.32
			C348.992,160.016,348.992,89.139,305.301,45.378z"/>
	</g>
</g>
<g>
	<g>
		<path d="M337.805,474.41l-85.448-302.96c25.897-5.664,42.3-31.25,36.635-57.148s-31.25-42.3-57.148-36.636
			c-25.897,5.664-42.3,31.25-36.635,57.148c4.007,18.32,18.316,32.629,36.635,36.636l-85.448,302.96
			c-1.197,4.253,1.28,8.671,5.533,9.869c0.707,0.199,1.437,0.3,2.171,0.299h176c4.418,0.002,8.002-3.578,8.003-7.997
			C338.104,475.847,338.003,475.116,337.805,474.41z M210.1,124.578c0-17.673,14.327-32,32-32c17.673,0,32,14.327,32,32
			s-14.327,32-32,32C224.427,156.578,210.1,142.251,210.1,124.578z M164.668,468.578L242.1,194.05l77.432,274.528H164.668z"/>
	</g>
</g>
<g>
</g>
<g>
</g>
<g>
</g>
<g>
</g>
<g>
</g>
<g>
</g>
<g>
</g>
<g>
</g>
<g>
</g>
<g>
</g>
<g>
</g>
<g>
</g>
<g>
</g>
<g>
</g>
<g>
</g>
</svg>
