<svg height="512" viewBox="0 0 64 64" width="512" xmlns="http://www.w3.org/2000/svg"><g id="Filled_outline" data-name="Filled outline"><path d="m26 7h12v12h-12z" fill="#ffd782"/><path d="m26 7h12v4h-12z" fill="#394d5c"/><path d="m32 3a2 2 0 0 1 2 2v2a0 0 0 0 1 0 0h-4a0 0 0 0 1 0 0v-2a2 2 0 0 1 2-2z" fill="#4e616d"/><path d="m25 23h14v16h-14z" fill="#db527d"/><path d="m39 23h8v4h-8z" fill="#f2b1b9"/><path d="m47 19h4v8h-4z" fill="#dd909d"/><circle cx="49" cy="15" fill="#ffd782" r="2"/><path d="m13 23h12v4h-12z" fill="#f2b1b9"/><circle cx="9" cy="25" fill="#ffd782" r="2"/><path d="m39 55v-16h-14v16a2 2 0 0 1 -2 2h-2a2 2 0 0 0 -2 2v2h30v-2a2 2 0 0 0 -2-2h-6a2 2 0 0 1 -2-2z" fill="#f98c96"/><path d="m25 33h14v6h-14z" fill="#dd3e46"/><g fill="#f98c96"><path d="m29 23 10 10h-14v-10z"/><path d="m21 43-8-2v-14h8z"/><path d="m43 43 8-2v-14h-8z"/></g><path d="m42 6 7 7 7-7s-2-2-7-2-7 2-7 2z" fill="#fcf05a"/><path d="m23 56h7v2h-7z" fill="#db527d"/><path d="m28 52h2v2h-2z" fill="#fcf05a"/><path d="m32 49h2v2h-2z" fill="#fcf05a"/><path d="m32 2a3 3 0 0 0 -3 3v1h-3a1 1 0 0 0 -1 1v12a1 1 0 0 0 1 1h12a1 1 0 0 0 1-1v-12a1 1 0 0 0 -1-1h-3v-1a3 3 0 0 0 -3-3zm-1 3a1 1 0 0 1 2 0v1h-2zm-4 13v-6h10v6zm10-8h-10v-2h10z"/><path d="m46 19v3h-33a1 1 0 0 0 -1 1v18a1 1 0 0 0 .758.97l8 2a1 1 0 0 0 1.242-.97v-15h2v27a1 1 0 0 1 -1 1h-2a3 3 0 0 0 -3 3v2a1 1 0 0 0 1 1h30a1 1 0 0 0 1-1v-2a3 3 0 0 0 -3-3h-6a1 1 0 0 1 -1-1v-27h2v15a1 1 0 0 0 1.242.97l8-2a1 1 0 0 0 .758-.97v-22a1 1 0 0 0 -1-1h-4a1 1 0 0 0 -1 1zm-20 15h12v4h-12zm12-3.414-6.586-6.586h6.586zm-1.414 1.414h-10.586v-8h2.586zm-16.586 9.719-6-1.5v-12.219h6zm-6-15.719v-2h10v2zm27 32h6a1 1 0 0 1 1 1v1h-28v-1a1 1 0 0 1 1-1h9v-2h-4.184a2.966 2.966 0 0 0 .184-1v-15h12v15a3 3 0 0 0 3 3zm-1-34h6v2h-6zm10 16.219-6 1.5v-13.719h6zm-2-20.219h2v6h-2z"/><path d="m9 22a3 3 0 1 0 3 3 3 3 0 0 0 -3-3zm0 4a1 1 0 1 1 1-1 1 1 0 0 1 -1 1z"/><path d="m56.707 5.293c-.094-.093-2.354-2.293-7.707-2.293s-7.613 2.2-7.707 2.293a1 1 0 0 0 0 1.414l5.907 5.908a3 3 0 1 0 3.6 0l5.908-5.908a1 1 0 0 0 -.001-1.414zm-7.707 10.707a1 1 0 1 1 1-1 1 1 0 0 1 -1 1zm0-4.414-5.438-5.439a11.521 11.521 0 0 1 5.438-1.147 11.534 11.534 0 0 1 5.439 1.146z"/><path d="m28 52h2v2h-2z"/><path d="m32 49h2v2h-2z"/></g></svg>