<?xml version="1.0"?>
<svg xmlns="http://www.w3.org/2000/svg" xmlns:xlink="http://www.w3.org/1999/xlink" xmlns:svgjs="http://svgjs.com/svgjs" version="1.1" width="512" height="512" x="0" y="0" viewBox="0 0 496 496" style="enable-background:new 0 0 512 512" xml:space="preserve"><g><path xmlns="http://www.w3.org/2000/svg" d="m488 448h-336.59375l-15.429688-200.617188h-.054687c12.269531-7.101562 21.972656-18.125 27.367187-31.382812h36.710938v184c0 26.472656 21.527344 48 48 48s48-21.527344 48-48v-184h48v184c0 26.472656 21.527344 48 48 48s48-21.527344 48-48v-184h8c4.414062 0 8-3.574219 8-8v-32c0-4.425781-3.585938-8-8-8h-8v-24h8c4.414062 0 8-3.574219 8-8v-32c0-4.425781-3.585938-8-8-8h-24v-40c0-4.425781-3.585938-8-8-8h-40v-40c0-4.425781-3.585938-8-8-8h-144c-4.414062 0-8 3.574219-8 8v88h-24c-4.414062 0-8 3.574219-8 8v32c0 4.425781 3.585938 8 8 8h8v24h-36.710938c-9.519531-23.425781-32.488281-40-59.289062-40-35.289062 0-64 28.710938-64 64 0 23.65625 12.9375 44.3125 32.078125 55.382812h-.054687l-15.429688 200.617188h-48.59375c-4.414062 0-8 3.574219-8 8v32c0 4.425781 3.585938 8 8 8h480c4.414062 0 8-3.574219 8-8v-32c0-4.425781-3.585938-8-8-8zm-240-16c-17.648438 0-32-14.351562-32-32v-88h14.054688c4.273437 0 8.289062 1.664062 11.320312 4.6875l1.9375 1.9375c6.046875 6.046875 14.085938 9.375 22.632812 9.375h14.054688v72c0 17.648438-14.351562 32-32 32zm32-120h-14.054688c-4.273437 0-8.289062-1.664062-11.320312-4.6875l-1.9375-1.9375c-6.046875-6.046875-14.085938-9.375-22.632812-9.375h-14.054688v-80h64zm112 120c-17.648438 0-32-14.351562-32-32v-88h14.054688c4.273437 0 8.289062 1.664062 11.320312 4.6875l1.9375 1.9375c6.046875 6.046875 14.085938 9.375 22.632812 9.375h14.054688v72c0 17.648438-14.351562 32-32 32zm32-120h-14.054688c-4.273437 0-8.289062-1.664062-11.320312-4.6875l-1.9375-1.9375c-6.046875-6.046875-14.085938-9.375-22.632812-9.375h-14.054688v-80h64zm0-144h-64v-24h64zm-120-24c4.414062 0 8-3.574219 8-8v-32c0-4.425781-3.585938-8-8-8h-24v-32h80v32h-24c-4.414062 0-8 3.574219-8 8v32c0 4.425781 3.585938 8 8 8h8v24h-48v-24zm136-16h-96v-16h96zm-32-64v32h-32v-32zm-176-48h128v32h-88c-4.414062 0-8 3.574219-8 8v40h-32zm-32 96h96v16h-96zm16 32h64v24h-64zm224 40v16h-272.550781c.328125-2.625.550781-5.289062.550781-8s-.222656-5.375-.550781-8zm-384 8c0-26.472656 21.527344-48 48-48s48 21.527344 48 48-21.527344 48-48 48-48-21.527344-48-48zm48 64c5.6875 0 11.167969-.816406 16.425781-2.214844l12.46875 162.214844h-57.796875l12.476563-162.214844c5.257812 1.398438 10.738281 2.214844 16.425781 2.214844zm-30.128906 176h60.257812l1.230469 16h-62.71875zm406.128906 48h-464v-16h464zm0 0" fill="#76b82a" data-original="#000000" style=""/><path xmlns="http://www.w3.org/2000/svg" d="m136 192c0-17.648438-14.351562-32-32-32s-32 14.351562-32 32 14.351562 32 32 32 32-14.351562 32-32zm-48 0c0-8.824219 7.175781-16 16-16s16 7.175781 16 16-7.175781 16-16 16-16-7.175781-16-16zm0 0" fill="#76b82a" data-original="#000000" style=""/><path xmlns="http://www.w3.org/2000/svg" d="m248 344h16v16h-16zm0 0" fill="#76b82a" data-original="#000000" style=""/><path xmlns="http://www.w3.org/2000/svg" d="m232 376h16v16h-16zm0 0" fill="#76b82a" data-original="#000000" style=""/><path xmlns="http://www.w3.org/2000/svg" d="m248 400h16v16h-16zm0 0" fill="#76b82a" data-original="#000000" style=""/><path xmlns="http://www.w3.org/2000/svg" d="m392 344h16v16h-16zm0 0" fill="#76b82a" data-original="#000000" style=""/><path xmlns="http://www.w3.org/2000/svg" d="m376 376h16v16h-16zm0 0" fill="#76b82a" data-original="#000000" style=""/><path xmlns="http://www.w3.org/2000/svg" d="m392 400h16v16h-16zm0 0" fill="#76b82a" data-original="#000000" style=""/></g></svg>
