<svg id="Layer_1" enable-background="new 0 0 510 510" height="512" viewBox="0 0 510 510" width="512" xmlns="http://www.w3.org/2000/svg"><g id="XMLID_3390_"><g id="XMLID_3481_"><g id="XMLID_3482_"><path id="XMLID_3486_" d="m105 330c-9.07 9.07-65.869 65.869-75 75v105h210l15-109-75-71z" fill="#ff4a4a"/><path id="XMLID_3483_" d="m480 405c-9.07-9.07-65.869-65.869-75-75h-75l-22.333 15-46.667 56.667 9 108.333h210c0-28.278 0-88.527 0-105z" fill="#d10763"/></g></g><g id="XMLID_3467_"><g id="XMLID_3468_"><path id="XMLID_3473_" d="m238.4 293.713-16.6.047-5.404 36.24 15.604 26.334 23 12.453 9.333-43.787-9.333-25z" fill="#ffb3b3"/><path id="XMLID_3470_" d="m288.15 293.57-16.575.047-16.575 6.383v68.787l27-15.787 11.94-23z" fill="#f99"/></g></g><g id="XMLID_3459_"><g id="XMLID_3460_"><path id="XMLID_3464_" d="m165 195v15.25c0 49.447 40.074 89.863 90 89.744l15-74.994-15-30-45-15z" fill="#fcc"/><path id="XMLID_3461_" d="m344.5 210.095c0-5.431 0-9.886 0-15.095l-44.75-15-44.75 15v104.994c49.065-.135 89.5-39.802 89.5-89.899z" fill="#ffb3b3"/></g></g><path id="XMLID_3446_" d="m420.25 330 14.75 15 15-15c0-25.699 0-95.271 0-120-10.492 0-19.508 0-30 0v67.5z" fill="#32393f"/><g id="XMLID_3434_"><g id="XMLID_3436_"><path id="XMLID_3444_" d="m220.717 334.504c-.097-.101-4.516-4.707-4.32-4.504-13.86 0-27.717 0-41.568 0 30.624 31.928 16.159 17.194 65.172 66.211v113.789h15l10-70.607-10-70.606c-11.433-11.432-22.853-22.852-34.284-34.283z" fill="#fff5f5"/><path id="XMLID_3438_" d="m270 396.213c48.6-48.6 33.642-33.879 67.131-66.213-13.732 0-29.458 0-43.19 0-.101.097-4.555 4.398-4.359 4.209-11.512 11.511-23.069 23.067-34.581 34.578v141.213h15c-.001-30.542-.001-95.273-.001-113.787z" fill="#ece6f2"/></g></g><g id="XMLID_3428_"><g><g id="XMLID_340_"><path id="XMLID_344_" d="m120 345.5v-15.5h-60.5c-32.861 0-59.5 26.639-59.5 59.5v15.5h60.5c32.861 0 59.5-26.639 59.5-59.5z" fill="#575f64"/></g></g></g><g id="XMLID_3419_"><g><g id="XMLID_337_"><path id="XMLID_339_" d="m450.5 330c-21.166 0-39.334 0-60.5 0v15.5c0 32.86 26.638 59.5 59.5 59.5h60.5c0-5.421 0-10.079 0-15.5 0-16.431-6.66-31.306-17.428-42.072-10.766-10.768-25.641-17.428-42.072-17.428z" fill="#474f54"/></g></g></g><path id="XMLID_3418_" d="m255 0c-66.273 0-120 53.725-120 120v45l60 15 60-15 15-82.5z" fill="#575f64"/><path id="XMLID_3408_" d="m375 120c0-66.272-53.724-120-120-120v165l60 15 60-15c0-14.982 0-30.019 0-45z" fill="#474f54"/><g id="XMLID_3391_"><path id="XMLID_3395_" d="m135 165v30h120l15-15-15-15c-14.518 0-105.387 0-120 0z" fill="#474f54"/><path id="XMLID_3392_" d="m375 165c-14.518 0-105.387 0-120 0v30h120c0-10.492 0-19.508 0-30z" fill="#32393f"/></g></g></svg>