<svg id="icons" enable-background="new 0 0 64 64" height="512" viewBox="0 0 64 64" width="512" xmlns="http://www.w3.org/2000/svg"><path d="m12.006 17.496c-1.654 0-3 1.346-3 3s1.346 3 3 3 3-1.346 3-3-1.346-3-3-3zm0 4c-.552 0-1-.448-1-1s.448-1 1-1 1 .448 1 1-.448 1-1 1z"/><path d="m29.453 18.602c-.494-.246-1.094-.047-1.342.447l-1 2c-.247.494-.047 1.095.447 1.342.144.071.296.105.446.105.367 0 .72-.202.896-.553l1-2c.247-.494.047-1.094-.447-1.341z"/><path d="m33.453 18.602c-.493-.246-1.094-.047-1.342.447l-1 2c-.247.494-.047 1.095.447 1.342.144.071.296.105.446.105.367 0 .72-.202.896-.553l1-2c.247-.494.047-1.094-.447-1.341z"/><path d="m37.453 18.602c-.494-.246-1.094-.047-1.342.447l-1 2c-.247.494-.047 1.095.447 1.342.144.071.296.105.446.105.367 0 .72-.202.896-.553l1-2c.247-.494.047-1.094-.447-1.341z"/><path d="m12.006 31.498c-1.654 0-3 1.346-3 3s1.346 3 3 3 3-1.346 3-3-1.346-3-3-3zm0 4c-.552 0-1-.448-1-1s.448-1 1-1 1 .448 1 1-.448 1-1 1z"/><path d="m29.453 32.604c-.494-.245-1.094-.047-1.342.447l-1 2c-.247.494-.047 1.095.447 1.342.144.071.296.105.446.105.367 0 .72-.202.896-.553l1-2c.247-.494.047-1.094-.447-1.341z"/><path d="m33.453 32.604c-.493-.245-1.094-.047-1.342.447l-1 2c-.247.494-.047 1.095.447 1.342.144.071.296.105.446.105.367 0 .72-.202.896-.553l1-2c.247-.494.047-1.094-.447-1.341z"/><path d="m37.453 32.604c-.494-.245-1.094-.047-1.342.447l-1 2c-.247.494-.047 1.095.447 1.342.144.071.296.105.446.105.367 0 .72-.202.896-.553l1-2c.247-.494.047-1.094-.447-1.341z"/><path d="m12.006 51.5c1.654 0 3-1.346 3-3s-1.346-3-3-3-3 1.346-3 3 1.346 3 3 3zm0-4c.552 0 1 .448 1 1s-.448 1-1 1-1-.448-1-1 .448-1 1-1z"/><path d="m27.559 50.395c.144.071.296.105.446.105.367 0 .72-.202.896-.553l1-2c.247-.494.047-1.095-.447-1.342-.494-.245-1.094-.047-1.342.447l-1 2c-.248.495-.048 1.095.447 1.343z"/><path d="m31.559 50.395c.144.071.296.105.446.105.367 0 .72-.202.896-.553l1-2c.247-.494.047-1.095-.447-1.342-.493-.245-1.094-.047-1.342.447l-1 2c-.248.495-.048 1.095.447 1.343z"/><path d="m35.559 50.395c.144.071.296.105.446.105.367 0 .72-.202.896-.553l1-2c.247-.494.047-1.095-.447-1.342-.494-.245-1.094-.047-1.342.447l-1 2c-.248.495-.048 1.095.447 1.343z"/><path d="m60.398 17.003c-.001-.001-.002 0-.003-.001-.061-.025-.129-.027-.194-.041-.066-.015-.133-.04-.199-.041 0 0-.001 0-.002 0-.02 0-.035.01-.055.011-.112.007-.223.023-.325.065-.048.021-.086.057-.13.083-.065.04-.134.073-.189.128-.053.052-.086.119-.126.181-.03.046-.07.081-.093.133-.001.002-.001.005-.002.007-.014.033-.012.072-.022.107-.029.094-.058.188-.058.283v.002 3.584h-2v-3.584c0-.002-.001-.004-.001-.006 0-.06-.024-.118-.036-.178-.014-.072-.018-.147-.046-.213-.001-.001 0-.003-.001-.004-.013-.03-.038-.049-.054-.077-.048-.085-.097-.169-.166-.237-.052-.051-.116-.081-.177-.119-.048-.03-.089-.068-.141-.09-.106-.044-.221-.063-.336-.067-.015-.001-.026-.009-.042-.009-.001 0-.001 0-.002 0-.072.001-.143.027-.215.044-.06.014-.124.015-.18.039-.001.001-.003 0-.004.001-2.187.955-3.6 3.114-3.6 5.5 0 2.216 1.21 4.149 3.001 5.188v19.82c0 .002-.001.003-.001.005 0 1.654 1.346 3 3 3s3-1.346 3-3c0-.002-.001-.003-.001-.005v-19.82c1.792-1.039 3.002-2.972 3.002-5.188 0-2.389-1.414-4.548-3.602-5.501zm-1.398 30.517c-.002.551-.449.998-1 .998s-.998-.447-1-.998c0 0 .001-.001.001-.002v-19.104c.325.055.658.09.999.09s.674-.035.999-.09v19.104c0 .001.001.002.001.002zm-1-21.016c-2.206 0-4-1.794-4-4 0-.994.368-1.93 1-2.646v2.646c0 .553.447 1 1 1h4c.553 0 1-.447 1-1 0-.019-.01-.034-.011-.053.001-.018.011-.034.011-.053v-2.542c.632.717 1 1.652 1 2.647 0 2.207-1.794 4.001-4 4.001z"/><path d="m50.962 22.288c-.011-.048-.006-.097-.023-.144l-1.5-4c-.003-.007-.009-.011-.011-.018-.028-.071-.076-.129-.119-.19-.031-.046-.055-.099-.093-.138-.044-.045-.102-.073-.154-.109s-.099-.081-.157-.106c-.053-.022-.112-.026-.169-.04-.07-.017-.138-.041-.212-.043-.008 0-.014-.004-.021-.004h-1c-.008 0-.014.004-.021.004-.075.002-.145.026-.217.044-.055.014-.112.017-.163.039-.062.026-.11.072-.164.11-.05.035-.105.062-.148.105-.039.039-.062.093-.094.14-.043.061-.09.118-.118.188-.002.007-.008.011-.011.018l-1.5 4c-.018.047-.013.096-.023.144-.016.076-.038.15-.036.229.002.064.022.123.036.185.014.064.019.128.045.188.032.074.084.135.132.199.028.037.042.08.076.114l.019.019s.001 0 .001.001l1.687 1.688v9.588h-.999c-.553 0-1 .447-1 1v12.015c0 .002-.001.003-.001.005 0 1.654 1.346 3 3 3s3-1.346 3-3c0-.002-.001-.003-.001-.005v-12.016c0-.553-.447-1-1-1h-.999v-9.588l1.688-1.688.001-.001.019-.019c.034-.034.048-.077.076-.114.048-.064.1-.125.132-.199.026-.061.031-.124.045-.188.014-.062.034-.12.036-.185-.001-.078-.023-.152-.039-.228zm-2.961 26.23c-.551 0-.998-.447-.999-.998 0 0 0-.001 0-.002v-11.02h1.998v11.02.002c-.001.55-.448.998-.999.998zm0-25.436-.837-.837.838-2.233.837 2.232z"/><path d="m41.708 12.794-5-5c-.092-.093-.203-.166-.326-.217-.122-.051-.252-.077-.382-.077h-34.999s0 0-.001 0c-.13 0-.26.026-.382.077-.113.047-.212.116-.3.199-.007.007-.017.009-.025.017-.018.018-.023.04-.039.059-.069.08-.134.165-.176.264-.052.124-.078.256-.077.389v41.995c0 .13.026.26.077.382.051.123.124.234.217.326l4.998 4.998c.092.093.203.166.326.217.122.051.252.077.382.077h35.001c.553 0 1-.447 1-1v-14-13.998-.002-13.998c0-.13-.026-.26-.077-.382-.051-.123-.124-.234-.217-.326zm-6.122-3.294 3.002 3.002h-32.172l-3.002-3.002zm-28.585 17v-11.998h33.001v11.998zm-2-12.585v11.171l-3-3v-11.171zm0 13.999v11.172l-3-3v-11.172zm-3 11 3 3v11.172l-3-3zm5-10.412h33.001v11.998h-33.001zm33.001 25.998h-33.001v-12h33.001z"/></svg>