<svg id="flat" height="512" viewBox="0 0 512 512" width="512" xmlns="http://www.w3.org/2000/svg"><path d="m272 279.968h64v16.029h-64z" fill="#445496"/><path d="m272 261.35818v18.64182l32 .02666 8.97056 8.97056a24 24 0 0 0 16.97057 7.02944h6.05887v-40h-8l-15.12688-10.08117a16 16 0 0 0 -17.74624 0z" fill="#ffceb6"/><path d="m471.99652 304.02666v-59.42409l.00348-.00448 3.45312-4.43973a59.56327 59.56327 0 0 0 12.54688-36.56836v-.00008a59.56329 59.56329 0 0 0 -59.56329-59.56329h-103.18456a32 32 0 0 0 -22.62838 9.37355l-54.62725 54.63191.00348 39.96791 23.99652.03212 48.00348-48v6.7018a35.09937 35.09937 0 0 0 24 33.29819v63.96789z" fill="#f5a431"/><path d="m192 296.027-48-95.995h104l48 95.995z" fill="#56679c"/><path d="m176 432h64v16.029h-64z" fill="#445496"/><path d="m264 360.02979v39.97021l-24 .02979-56-56v103.97021h-32v8l-112 .02979v-59.42969l-3.46-4.43994a59.56891 59.56891 0 0 1 47.02-96.13037h103.18a32.00146 32.00146 0 0 1 22.63013 9.37011z" fill="#ed6445"/><path d="m119.997 328.027-8-16 16-7.995 16 7.995-8 16z" fill="#f5a431"/><path d="m111.997 408.027 8-80h16l8 80z" fill="#f7c04a"/><path d="m168 448.02638a8 8 0 0 1 -8 8h-64.35254a39.73806 39.73806 0 0 1 -31.57422-15.44238l-25.4765-32.75585a7.99946 7.99946 0 0 1 1.40326-11.22563 7.99947 7.99947 0 0 1 11.22555 1.40328l25.47656 32.75593a23.84816 23.84816 0 0 0 18.94531 9.26465h64.35258a8 8 0 0 1 8 8z" fill="#de402f"/><path d="m240 432-32.00348.02666-8.97057 8.97056a24 24 0 0 1 -16.97056 7.02944h-14.05539v-40h15.99651l15.12688-10.08117a16 16 0 0 1 17.74623 0l23.13038 15.41501z" fill="#ffceb6"/><path d="m168 408.02638a8 8 0 0 1 -8 8h-48.00391a8.00135 8.00135 0 0 1 -6.07421-2.79395l-42.79382-49.92612a7.99948 7.99948 0 0 1 .86791-11.27984l.00075-.00064a7.99947 7.99947 0 0 1 11.27937.86785l40.39969 47.13269h44.32422a8 8 0 0 1 8 8z" fill="#de402f"/><path d="m432 168.03223v-24h-16v17.7539l-24.85449 6.21387h-14.29l-24.85551-6.21387v-17.7539h-16v24a7.99867 7.99867 0 0 0 6.05957 7.76074l11.01953 2.75488-12.65722 6.3291a8.00106 8.00106 0 0 0 -2.07911 12.8125l40 40a8.00343 8.00343 0 0 0 11.3003-.01416l.01416.01416 40-40a8.00106 8.00106 0 0 0 -2.07911-12.8125l-12.65722-6.3291 11.01953-2.75488a7.99867 7.99867 0 0 0 6.05957-7.76074zm-56 44.68652-18.49512-18.49512 18.49512-9.24707zm16-.00049v-27.7417l18.49512 9.24707z" fill="#eb8117"/><path d="m167.99509 336.02505a7.99734 7.99734 0 0 1 -11.31 0l-28.68509-28.68521-28.69506 28.68691a7.99735 7.99735 0 0 1 -11.30921-.00087l-.00083-.00083a7.99734 7.99734 0 0 1 0-11.30984l28.685-28.68542h22.63013l28.685 28.68542a7.99734 7.99734 0 0 1 .00006 11.30984z" fill="#de402f"/><path d="m104 239.97332-.00348 40.05877a24 24 0 0 0 24 24h.00005a24 24 0 0 0 24-24v-40.03209z" fill="#ffceb6"/><path d="m120 248.03212 2.34315 2.34315a19.31368 19.31368 0 0 0 13.65685 5.65684 24 24 0 0 0 24-24v-8h-39.93451a22.28967 22.28967 0 0 0 -21.14585 15.24106 22.28968 22.28968 0 0 0 1.20935 17.01686l3.87101 7.74209z" fill="#b36f42"/><path d="m320 448.027 48-95.995h-104.003l-48 95.995z" fill="#56679c"/><path d="m296 416.03223a16 16 0 1 1 16-16 16.01833 16.01833 0 0 1 -16 16z" fill="#445496"/><path d="m448 200.02666-48 56h-64v40h80.34932a32 32 0 0 0 25.25927-12.3539l30.39141-39.07467z" fill="#f5a431"/><path d="m416.34961 304.02637h-72.35015a7.99946 7.99946 0 0 1 -7.99946-7.99947v-.00107a7.99946 7.99946 0 0 1 7.99946-7.99946h72.35015a23.8463 23.8463 0 0 0 18.94434-9.26465l25.48046-32.76083a7.99946 7.99946 0 0 1 11.22559-1.40327 7.99946 7.99946 0 0 1 1.40328 11.22562l-25.48043 32.76076a39.74042 39.74042 0 0 1 -31.57324 15.44237z" fill="#eb8117"/><path d="m400 264.02637h-56.00054a7.99946 7.99946 0 0 1 -7.99946-7.99947v-.00107a7.99946 7.99946 0 0 1 7.99946-7.99946h52.32085l40.39969-47.13269a7.99947 7.99947 0 0 1 11.27937-.86785l.00075.00064a7.99946 7.99946 0 0 1 .86791 11.27984l-42.79381 49.92611a7.99987 7.99987 0 0 1 -6.07422 2.79395z" fill="#eb8117"/><path d="m216 264a16 16 0 1 1 16-16 16.01833 16.01833 0 0 1 -16 16z" fill="#445496"/><path d="m408 128v16.03l-24 48-16.01-32.03-7.99-15.97 8-.03v-16z" fill="#ffceb6"/><path d="m400 128v8a24.00619 24.00619 0 0 1 -24 24h-8.00977l-7.99023-15.97 8-.03v-16z" fill="#ffbfa1"/><circle cx="408" cy="88" fill="#9e593c" r="32"/><path d="m360 120v-16a24 24 0 0 1 24-24 24 24 0 0 1 24 24v16z" fill="#b36f42"/><path d="m384 152.03212a24 24 0 0 0 24-24v-8h-6.11147a28.94424 28.94424 0 0 1 -25.88852-16l-16 16v8a24 24 0 0 0 23.99999 24z" fill="#ffceb6"/></svg>