<svg height="512" viewBox="0 0 64 64" width="512" xmlns="http://www.w3.org/2000/svg"><g id="Filled_outline" data-name="Filled outline"><path d="m49 28 3-19 7 22 2 21v2h-11l-1-20z" fill="#b7a17d"/><path d="m15 28-3-19-7 22-2 21v2h11l1-20z" fill="#b7a17d"/><path d="m50 61h-36v-4-3l1-20v-6l-3-19 12-2h16l12 2-3 19v6l1 20v3z" fill="#ccba9a"/><path d="m14 58h-11v-4h11v3z" fill="#ccba9a"/><path d="m50 58h11v-4h-11v3z" fill="#ccba9a"/><path d="m9 33 2-6-4.223-1.584-1.777 5.584-.031.321z" fill="#fcf05a"/><path d="m5.5 34.307h2v5.385h-2z" fill="#995f5b" transform="matrix(.371 -.928 .928 .371 -30.267 29.294)"/><path d="m5 38.764h2v4.472h-2z" fill="#995f5b" transform="matrix(.447 -.894 .894 .447 -33.355 28.031)"/><path d="m24 3h16v4h-16z" fill="#c63442"/><path d="m27.556 23.111 4.444-1.111v-7l-4 3z" fill="#c63442"/><path d="m27.022 29.244 4.978-1.244v-6l-4.444 1.111z" fill="#ffd782"/><path d="m26.489 35.378 5.511-1.378v-6l-4.978 1.244z" fill="#c63442"/><path d="m32 34-5.511 1.378-.489 5.622.4.4 5.6-1.4z" fill="#ffd782"/><path d="m26.4 41.4 5.6 5.6v-7z" fill="#c63442"/><path d="m36.444 23.111-4.444-1.111v-7l4 3z" fill="#dd3e46"/><path d="m36.978 29.244-4.978-1.244v-6l4.444 1.111z" fill="#ffdfa6"/><path d="m37.511 35.378-5.511-1.378v-6l4.978 1.244z" fill="#dd3e46"/><path d="m32 34 5.511 1.378.489 5.622-.4.4-5.6-1.4z" fill="#ffdfa6"/><path d="m37.6 41.4-5.6 5.6v-7z" fill="#dd3e46"/><path d="m27 10-6.398 3.839 7.398 4.161 4-3z" fill="#ffd782"/><path d="m27 10-3-3-12 2 8.602 4.839z" fill="#c63442"/><path d="m24 7v-4l-4 1-8 5z" fill="#ffd782"/><path d="m37 10 6.398 3.839-7.398 4.161-4-3z" fill="#ffd782"/><path d="m37 10 3-3 12 2-8.602 4.839z" fill="#c63442"/><path d="m40 7v-4l4 1 8 5z" fill="#ffd782"/><circle cx="43" cy="23" fill="#5e2c81" r="3"/><path d="m18 20h6v4h-6z" fill="#fcf05a"/><circle cx="21" cy="30" fill="#e1462b" r="2"/><path d="m40 29h6v2h-6z" fill="#995f5b"/><path d="m18 35h5v2h-5z" fill="#fcf05a"/><path d="m40 33h2v2h-2z" fill="#995f5b"/><path d="m44 33h2v2h-2z" fill="#995f5b"/><path d="m31 46h2v10h-2z" fill="#b7a17d"/><g fill="#ad6327"><path d="m21 52h-3a1 1 0 0 1 -1-1v-4h2v3h2z"/><path d="m45 52h-3v-2h2v-5h2v6a1 1 0 0 1 -1 1z"/><path d="m38 50h2v2h-2z"/><path d="m14 55h36v6h-36z"/></g><path d="m27 55h10v6h-10z" fill="#fcf05a"/><path d="m60 30.905a.984.984 0 0 0 -.042-.208l-7-22s-.088-.184-.119-.232c-.012-.019-.073-.1-.087-.118-.042-.048-.209-.19-.216-.194l-8-5a1.032 1.032 0 0 0 -.288-.122l-4-1a1.973 1.973 0 0 0 -.248-.031h-16a2 2 0 0 0 -.242.03l-4 1a1.032 1.032 0 0 0 -.288.122l-8 5a2.7 2.7 0 0 0 -.215.193c-.016.018-.076.1-.088.119-.031.048-.118.23-.119.232l-4.905 15.414-2.096 6.59a.984.984 0 0 0 -.042.208l-2.005 21.092v6a1 1 0 0 0 1 1h10v2a1 1 0 0 0 1 1h36a1 1 0 0 0 1-1v-2h10a1 1 0 0 0 1-1v-6.095zm-19-26.624 2.6.651 3.611 2.256-6.211-1.035zm-.657 3.79 8.693 1.449-5.622 3.163-4.801-2.883zm-13.27 32.129.351-4.026 3.576-.893v3.939zm3.927 1.081v3.305l-2.644-2.644zm-8.407-27.47 4.252-2.552 3.633 3.633-2.556 1.917zm5.013 20.256.351-4.026 3.043-.761v3.94zm.535-6.133.349-4.026 2.51-.627v3.938zm.532-6.133.285-3.269 2.042-1.532v4.22zm-2.259-13.801h11.172l-5.586 5.586zm6.586 19.219v-3.938l2.51.627.349 4.026zm3.043 2.822.351 4.026-3.394-.847v-3.94zm-3.043-8.821v-4.22l2.042 1.532.285 3.269zm0 20.061 2.644.661-2.644 2.644zm0-2.061v-3.939l3.576.894.351 4.026zm3.078-22.411-2.556-1.917 3.633-3.633 4.252 2.552zm-11.078-12.809h14v2h-14zm-4.6.932 2.6-.651v1.872l-6.215 1.035zm3.261 3.139 1.73 1.73-4.8 2.882-5.627-3.163zm-16.25 18.651 2.336.876-1.355 4.065-2.254-.939zm5.589 30.278h-9v-2h9zm.049-4h-9.049v-.9l1-10.48 2.56 1.28.894-1.79-3.254-1.63.176-1.854 3.256 1.3.742-1.858-3.8-1.52.265-2.786 3.772 1.572 2.642-7.934-4.235-1.586 3.654-11.483 2.328 14.747v5.872zm12.951 7h-11v-4h11zm-11-6 1-20v-6a.912.912 0 0 0 -.013-.156l-2.677-16.96 13.638 7.671-1.948 22.358a1 1 0 0 0 .289.794l5.711 5.707v6.586zm21 6h-8v-4h8zm13 0h-11v-4h11zm-.987-32.156a.912.912 0 0 0 -.013.156v6.05l1 19.95h-16v-6.586l5.707-5.707a1 1 0 0 0 .293-.794l-1.948-22.358 13.638-7.671zm11.987 29.156h-9v-2h9zm0-4h-9.049l-.951-19v-5.922l2.328-14.747 5.687 17.869 1.985 20.8z"/><path d="m43 19a4 4 0 1 0 4 4 4 4 0 0 0 -4-4zm0 6a2 2 0 1 1 2-2 2 2 0 0 1 -2 2z"/><path d="m17 25h8v-6h-8zm2-4h4v2h-4z"/><path d="m21 27a3 3 0 1 0 3 3 3 3 0 0 0 -3-3zm0 4a1 1 0 1 1 1-1 1 1 0 0 1 -1 1z"/><path d="m40 29h6v2h-6z"/><path d="m18 35h5v2h-5z"/><path d="m40 33h2v2h-2z"/><path d="m44 33h2v2h-2z"/><path d="m19 47h-2v4a1 1 0 0 0 1 1h3v-2h-2z"/><path d="m44 50h-2v2h3a1 1 0 0 0 1-1v-6h-2z"/><path d="m38 50h2v2h-2z"/></g></svg>